STARTFONT 2.1
COMMENT $Xorg: $
COMMENT ISO10646-1 extension by Markus Kuhn <mkuhn@acm.org>, 2001-03-20
COMMENT  (c) Copyright Bigelow & Holmes 1986, 1985. Lucida is a registered
COMMENT  trademark of Bigelow & Holmes. See LEGAL NOTICE file for terms 
COMMENT  of the license. 
FONT -B&H-LucidaBright-Medium-I-Normal--11-80-100-100-P-63-ISO10646-1
SIZE 8 100 100
FONTBOUNDINGBOX 17 20 -5 -5
STARTPROPERTIES 22
COMMENT Begin LogicalFontDescription
FONTNAME_REGISTRY ""
FOUNDRY "B&H"
FAMILY_NAME "LucidaBright"
WEIGHT_NAME "Medium"
SLANT "I"
SETWIDTH_NAME "Normal"
ADD_STYLE_NAME ""
PIXEL_SIZE 11
POINT_SIZE 80
RESOLUTION_X 100
RESOLUTION_Y 100
SPACING "P"
AVERAGE_WIDTH 63
CHARSET_REGISTRY "ISO10646"
CHARSET_ENCODING "1"
COMMENT END LogicalFontDescription
FONT_ASCENT 10
FONT_DESCENT 3
DEFAULT_CHAR 0
COPYRIGHT "Copyright Bigelow & Holmes 1986, 1985."
FACE_NAME "Lucida Bright Italic"
X_HEIGHT 6
CAP_HEIGHT 9
ENDPROPERTIES
CHARS 723
STARTCHAR char0
ENCODING 0
SWIDTH 776 0
DWIDTH 9 0
BBX 9 9 0 0
BITMAP
AA80
0000
8080
0000
8080
0000
8080
0000
AA80
ENDCHAR
STARTCHAR space
ENCODING 32
SWIDTH 333 0
DWIDTH 3 0
BBX 1 1 0 0
BITMAP
00
ENDCHAR
STARTCHAR exclam
ENCODING 33
SWIDTH 265 0
DWIDTH 3 0
BBX 3 9 1 0
BITMAP
20
20
40
40
40
40
40
00
80
ENDCHAR
STARTCHAR quotedbl
ENCODING 34
SWIDTH 377 0
DWIDTH 4 0
BBX 3 4 2 5
BITMAP
A0
A0
A0
A0
ENDCHAR
STARTCHAR numbersign
ENCODING 35
SWIDTH 608 0
DWIDTH 7 0
BBX 7 9 1 0
BITMAP
1A
14
7E
28
28
FC
50
90
B0
ENDCHAR
STARTCHAR dollar
ENCODING 36
SWIDTH 608 0
DWIDTH 7 0
BBX 5 10 2 -1
BITMAP
78
60
60
60
20
70
50
D0
E0
40
ENDCHAR
STARTCHAR percent
ENCODING 37
SWIDTH 759 0
DWIDTH 8 0
BBX 8 9 1 0
BITMAP
71
52
54
6C
16
19
29
4A
86
ENDCHAR
STARTCHAR ampersand
ENCODING 38
SWIDTH 727 0
DWIDTH 8 0
BBX 8 9 1 0
BITMAP
1C
24
24
38
57
92
8C
CC
76
ENDCHAR
STARTCHAR quotesingle
ENCODING 39
SWIDTH 231 0
DWIDTH 3 0
BBX 1 4 2 5
BITMAP
80
80
80
80
ENDCHAR
STARTCHAR parenleft
ENCODING 40
SWIDTH 310 0
DWIDTH 3 0
BBX 4 12 1 -3
BITMAP
30
20
40
40
80
80
80
80
80
80
80
40
ENDCHAR
STARTCHAR parenright
ENCODING 41
SWIDTH 310 0
DWIDTH 3 0
BBX 4 11 0 -2
BITMAP
20
30
10
10
10
30
20
20
20
40
80
ENDCHAR
STARTCHAR asterisk
ENCODING 42
SWIDTH 458 0
DWIDTH 5 0
BBX 4 4 2 5
BITMAP
20
F0
60
A0
ENDCHAR
STARTCHAR plus
ENCODING 43
SWIDTH 608 0
DWIDTH 7 0
BBX 6 8 1 0
BITMAP
10
10
10
10
FC
20
20
20
ENDCHAR
STARTCHAR comma
ENCODING 44
SWIDTH 265 0
DWIDTH 3 0
BBX 2 4 0 -2
BITMAP
40
C0
40
80
ENDCHAR
STARTCHAR hyphen
ENCODING 45
SWIDTH 313 0
DWIDTH 3 0
BBX 3 1 1 3
BITMAP
E0
ENDCHAR
STARTCHAR period
ENCODING 46
SWIDTH 265 0
DWIDTH 3 0
BBX 2 1 1 0
BITMAP
C0
ENDCHAR
STARTCHAR slash
ENCODING 47
SWIDTH 458 0
DWIDTH 5 0
BBX 7 11 0 -2
BITMAP
02
04
04
08
10
10
20
20
40
40
80
ENDCHAR
STARTCHAR zero
ENCODING 48
SWIDTH 608 0
DWIDTH 7 0
BBX 6 9 1 0
BITMAP
38
6C
44
84
84
88
88
98
70
ENDCHAR
STARTCHAR one
ENCODING 49
SWIDTH 608 0
DWIDTH 7 0
BBX 4 9 1 0
BITMAP
70
10
10
20
20
20
20
20
F0
ENDCHAR
STARTCHAR two
ENCODING 50
SWIDTH 608 0
DWIDTH 7 0
BBX 6 9 1 0
BITMAP
38
44
04
04
18
20
60
40
F8
ENDCHAR
STARTCHAR three
ENCODING 51
SWIDTH 608 0
DWIDTH 7 0
BBX 6 9 1 0
BITMAP
38
4C
04
08
30
18
08
98
F0
ENDCHAR
STARTCHAR four
ENCODING 52
SWIDTH 608 0
DWIDTH 7 0
BBX 6 9 1 0
BITMAP
0C
14
28
48
88
FC
08
10
38
ENDCHAR
STARTCHAR five
ENCODING 53
SWIDTH 608 0
DWIDTH 7 0
BBX 6 9 1 0
BITMAP
3C
40
40
70
18
08
08
90
F0
ENDCHAR
STARTCHAR six
ENCODING 54
SWIDTH 608 0
DWIDTH 7 0
BBX 6 9 1 0
BITMAP
1C
24
40
F8
C8
88
88
98
70
ENDCHAR
STARTCHAR seven
ENCODING 55
SWIDTH 608 0
DWIDTH 7 0
BBX 6 9 2 0
BITMAP
7C
08
08
10
20
20
40
C0
80
ENDCHAR
STARTCHAR eight
ENCODING 56
SWIDTH 608 0
DWIDTH 7 0
BBX 6 9 1 0
BITMAP
38
44
44
78
70
88
88
88
70
ENDCHAR
STARTCHAR nine
ENCODING 57
SWIDTH 608 0
DWIDTH 7 0
BBX 6 9 1 0
BITMAP
38
6C
44
44
4C
7C
08
90
E0
ENDCHAR
STARTCHAR colon
ENCODING 58
SWIDTH 265 0
DWIDTH 3 0
BBX 2 6 1 0
BITMAP
40
00
00
00
00
80
ENDCHAR
STARTCHAR semicolon
ENCODING 59
SWIDTH 265 0
DWIDTH 3 0
BBX 3 8 0 -2
BITMAP
60
00
00
00
40
C0
40
80
ENDCHAR
STARTCHAR less
ENCODING 60
SWIDTH 608 0
DWIDTH 7 0
BBX 7 8 1 0
BITMAP
02
0C
10
E0
40
30
08
04
ENDCHAR
STARTCHAR equal
ENCODING 61
SWIDTH 608 0
DWIDTH 7 0
BBX 7 3 0 2
BITMAP
FE
00
FE
ENDCHAR
STARTCHAR greater
ENCODING 62
SWIDTH 608 0
DWIDTH 7 0
BBX 7 8 0 0
BITMAP
40
30
08
04
06
18
60
80
ENDCHAR
STARTCHAR question
ENCODING 63
SWIDTH 471 0
DWIDTH 5 0
BBX 4 9 2 0
BITMAP
F0
90
10
30
60
40
80
00
80
ENDCHAR
STARTCHAR at
ENCODING 64
SWIDTH 861 0
DWIDTH 9 0
BBX 9 9 1 0
BITMAP
1F00
2080
4E80
9280
A280
A480
9B00
4000
3C00
ENDCHAR
STARTCHAR A
ENCODING 65
SWIDTH 747 0
DWIDTH 8 0
BBX 8 9 0 0
BITMAP
04
0C
0C
14
32
3E
42
42
C7
ENDCHAR
STARTCHAR B
ENCODING 66
SWIDTH 606 0
DWIDTH 7 0
BBX 7 9 0 0
BITMAP
3E
12
22
24
38
24
66
44
F8
ENDCHAR
STARTCHAR C
ENCODING 67
SWIDTH 714 0
DWIDTH 8 0
BBX 7 9 1 0
BITMAP
1E
22
40
C0
80
80
80
C4
78
ENDCHAR
STARTCHAR D
ENCODING 68
SWIDTH 770 0
DWIDTH 8 0
BBX 9 9 0 0
BITMAP
3F00
3180
2080
2080
2080
2180
6100
4200
FC00
ENDCHAR
STARTCHAR E
ENCODING 69
SWIDTH 569 0
DWIDTH 6 0
BBX 7 9 0 0
BITMAP
3E
32
20
24
3C
28
60
44
FC
ENDCHAR
STARTCHAR F
ENCODING 70
SWIDTH 551 0
DWIDTH 6 0
BBX 7 9 0 0
BITMAP
3E
32
20
24
3C
28
40
40
E0
ENDCHAR
STARTCHAR G
ENCODING 71
SWIDTH 756 0
DWIDTH 8 0
BBX 7 9 1 0
BITMAP
1E
22
40
C0
80
8E
84
C4
7C
ENDCHAR
STARTCHAR H
ENCODING 72
SWIDTH 776 0
DWIDTH 9 0
BBX 10 9 0 0
BITMAP
39C0
3080
2180
2100
3F00
2100
6100
4300
E700
ENDCHAR
STARTCHAR I
ENCODING 73
SWIDTH 325 0
DWIDTH 4 0
BBX 5 9 0 0
BITMAP
38
10
30
20
20
20
60
40
E0
ENDCHAR
STARTCHAR J
ENCODING 74
SWIDTH 422 0
DWIDTH 5 0
BBX 6 11 0 -2
BITMAP
1C
08
08
18
10
10
10
10
10
A0
E0
ENDCHAR
STARTCHAR K
ENCODING 75
SWIDTH 698 0
DWIDTH 8 0
BBX 8 9 0 0
BITMAP
7B
32
24
38
30
78
48
44
EE
ENDCHAR
STARTCHAR L
ENCODING 76
SWIDTH 572 0
DWIDTH 6 0
BBX 6 9 0 0
BITMAP
78
30
20
20
20
20
40
44
FC
ENDCHAR
STARTCHAR M
ENCODING 77
SWIDTH 865 0
DWIDTH 10 0
BBX 11 9 0 0
BITMAP
30E0
30C0
3140
3B80
2A80
2C80
4C80
4180
E380
ENDCHAR
STARTCHAR N
ENCODING 78
SWIDTH 762 0
DWIDTH 8 0
BBX 10 9 0 0
BITMAP
21C0
3100
3100
2900
2900
2500
4700
4200
E200
ENDCHAR
STARTCHAR O
ENCODING 79
SWIDTH 783 0
DWIDTH 9 0
BBX 8 9 1 0
BITMAP
1E
22
43
C1
83
82
82
C4
78
ENDCHAR
STARTCHAR P
ENCODING 80
SWIDTH 579 0
DWIDTH 6 0
BBX 7 9 0 0
BITMAP
3C
32
22
24
38
60
40
40
E0
ENDCHAR
STARTCHAR Q
ENCODING 81
SWIDTH 788 0
DWIDTH 9 0
BBX 9 11 1 -2
BITMAP
1C00
2200
4300
C100
8300
8200
8200
C400
7800
0800
0780
ENDCHAR
STARTCHAR R
ENCODING 82
SWIDTH 686 0
DWIDTH 8 0
BBX 7 9 0 0
BITMAP
7C
26
22
24
38
68
48
44
E6
ENDCHAR
STARTCHAR S
ENCODING 83
SWIDTH 549 0
DWIDTH 6 0
BBX 6 9 1 0
BITMAP
3C
64
44
20
18
08
8C
88
F0
ENDCHAR
STARTCHAR T
ENCODING 84
SWIDTH 663 0
DWIDTH 7 0
BBX 7 9 2 0
BITMAP
FE
92
10
30
20
20
20
20
F0
ENDCHAR
STARTCHAR U
ENCODING 85
SWIDTH 727 0
DWIDTH 8 0
BBX 8 9 2 0
BITMAP
E7
42
42
44
84
84
84
C8
78
ENDCHAR
STARTCHAR V
ENCODING 86
SWIDTH 656 0
DWIDTH 7 0
BBX 8 9 1 0
BITMAP
E3
42
42
44
4C
68
30
30
20
ENDCHAR
STARTCHAR W
ENCODING 87
SWIDTH 878 0
DWIDTH 10 0
BBX 10 9 1 0
BITMAP
E4C0
4C80
4C80
5500
5500
6600
6600
6400
4400
ENDCHAR
STARTCHAR X
ENCODING 88
SWIDTH 624 0
DWIDTH 7 0
BBX 9 9 0 0
BITMAP
3980
1100
1200
0C00
0800
1400
2400
4200
C700
ENDCHAR
STARTCHAR Y
ENCODING 89
SWIDTH 663 0
DWIDTH 7 0
BBX 7 9 2 0
BITMAP
E6
44
4C
38
30
20
20
20
70
ENDCHAR
STARTCHAR Z
ENCODING 90
SWIDTH 633 0
DWIDTH 7 0
BBX 7 9 1 0
BITMAP
3E
24
4C
08
10
20
60
44
FC
ENDCHAR
STARTCHAR bracketleft
ENCODING 91
SWIDTH 310 0
DWIDTH 3 0
BBX 4 11 1 -2
BITMAP
30
20
60
40
40
40
40
40
80
80
C0
ENDCHAR
STARTCHAR backslash
ENCODING 92
SWIDTH 458 0
DWIDTH 5 0
BBX 3 11 2 -2
BITMAP
80
80
40
40
40
40
40
40
40
20
20
ENDCHAR
STARTCHAR bracketright
ENCODING 93
SWIDTH 310 0
DWIDTH 3 0
BBX 4 11 0 -2
BITMAP
30
10
10
20
20
20
20
20
20
40
C0
ENDCHAR
STARTCHAR asciicircum
ENCODING 94
SWIDTH 608 0
DWIDTH 7 0
BBX 6 8 1 1
BITMAP
08
18
28
28
48
44
84
84
ENDCHAR
STARTCHAR underscore
ENCODING 95
SWIDTH 500 0
DWIDTH 5 0
BBX 5 1 0 -1
BITMAP
F8
ENDCHAR
STARTCHAR grave
ENCODING 96
SWIDTH 560 0
DWIDTH 6 0
BBX 2 2 3 7
BITMAP
80
40
ENDCHAR
STARTCHAR a
ENCODING 97
SWIDTH 608 0
DWIDTH 7 0
BBX 6 6 1 0
BITMAP
3C
44
48
88
B8
EC
ENDCHAR
STARTCHAR b
ENCODING 98
SWIDTH 596 0
DWIDTH 7 0
BBX 6 9 1 0
BITMAP
60
20
40
5C
64
64
48
88
F0
ENDCHAR
STARTCHAR c
ENCODING 99
SWIDTH 487 0
DWIDTH 5 0
BBX 5 6 1 0
BITMAP
38
48
80
80
80
70
ENDCHAR
STARTCHAR d
ENCODING 100
SWIDTH 608 0
DWIDTH 7 0
BBX 6 9 1 0
BITMAP
0C
04
04
38
48
48
88
B8
E8
ENDCHAR
STARTCHAR e
ENCODING 101
SWIDTH 518 0
DWIDTH 6 0
BBX 5 6 1 0
BITMAP
38
48
90
E0
88
70
ENDCHAR
STARTCHAR f
ENCODING 102
SWIDTH 380 0
DWIDTH 4 0
BBX 5 11 1 -2
BITMAP
18
28
20
70
40
40
40
40
C0
80
80
ENDCHAR
STARTCHAR g
ENCODING 103
SWIDTH 602 0
DWIDTH 7 0
BBX 6 8 1 -2
BITMAP
1C
24
44
48
D8
68
88
F0
ENDCHAR
STARTCHAR h
ENCODING 104
SWIDTH 631 0
DWIDTH 7 0
BBX 6 9 1 0
BITMAP
60
20
40
5C
74
44
48
88
8C
ENDCHAR
STARTCHAR i
ENCODING 105
SWIDTH 289 0
DWIDTH 3 0
BBX 3 9 1 0
BITMAP
20
00
00
E0
40
40
40
80
C0
ENDCHAR
STARTCHAR j
ENCODING 106
SWIDTH 343 0
DWIDTH 4 0
BBX 5 11 0 -2
BITMAP
08
00
00
18
10
10
10
10
10
A0
C0
ENDCHAR
STARTCHAR k
ENCODING 107
SWIDTH 560 0
DWIDTH 6 0
BBX 6 9 1 0
BITMAP
60
20
40
44
58
60
70
98
8C
ENDCHAR
STARTCHAR l
ENCODING 108
SWIDTH 289 0
DWIDTH 3 0
BBX 3 9 1 0
BITMAP
60
20
40
40
40
40
40
80
C0
ENDCHAR
STARTCHAR m
ENCODING 109
SWIDTH 944 0
DWIDTH 10 0
BBX 9 6 1 0
BITMAP
DB80
6E80
6C80
4900
8900
9980
ENDCHAR
STARTCHAR n
ENCODING 110
SWIDTH 631 0
DWIDTH 7 0
BBX 6 6 1 0
BITMAP
DC
54
64
48
88
8C
ENDCHAR
STARTCHAR o
ENCODING 111
SWIDTH 560 0
DWIDTH 6 0
BBX 5 6 1 0
BITMAP
38
48
C8
88
98
F0
ENDCHAR
STARTCHAR p
ENCODING 112
SWIDTH 608 0
DWIDTH 7 0
BBX 6 8 1 -2
BITMAP
DC
74
64
48
48
F0
80
80
ENDCHAR
STARTCHAR q
ENCODING 113
SWIDTH 599 0
DWIDTH 7 0
BBX 6 8 1 -2
BITMAP
3C
44
48
88
B8
E8
08
10
ENDCHAR
STARTCHAR r
ENCODING 114
SWIDTH 470 0
DWIDTH 5 0
BBX 5 6 1 0
BITMAP
D8
68
60
40
80
80
ENDCHAR
STARTCHAR s
ENCODING 115
SWIDTH 440 0
DWIDTH 5 0
BBX 4 6 1 0
BITMAP
70
50
40
20
90
E0
ENDCHAR
STARTCHAR t
ENCODING 116
SWIDTH 355 0
DWIDTH 4 0
BBX 4 9 1 0
BITMAP
20
40
40
F0
40
40
80
80
E0
ENDCHAR
STARTCHAR u
ENCODING 117
SWIDTH 630 0
DWIDTH 7 0
BBX 6 6 1 0
BITMAP
CC
44
4C
98
98
EC
ENDCHAR
STARTCHAR v
ENCODING 118
SWIDTH 558 0
DWIDTH 6 0
BBX 6 6 1 0
BITMAP
C4
44
2C
28
30
20
ENDCHAR
STARTCHAR w
ENCODING 119
SWIDTH 805 0
DWIDTH 9 0
BBX 9 6 1 0
BITMAP
C980
4980
5D00
3600
2600
2400
ENDCHAR
STARTCHAR x
ENCODING 120
SWIDTH 510 0
DWIDTH 6 0
BBX 6 6 0 0
BITMAP
C4
28
30
70
D8
8C
ENDCHAR
STARTCHAR y
ENCODING 121
SWIDTH 558 0
DWIDTH 6 0
BBX 7 8 0 -2
BITMAP
66
22
24
28
18
20
20
C0
ENDCHAR
STARTCHAR z
ENCODING 122
SWIDTH 536 0
DWIDTH 6 0
BBX 6 6 0 0
BITMAP
7C
48
10
20
48
F8
ENDCHAR
STARTCHAR braceleft
ENCODING 123
SWIDTH 337 0
DWIDTH 4 0
BBX 4 11 1 -2
BITMAP
30
20
20
20
40
80
40
40
80
80
C0
ENDCHAR
STARTCHAR bar
ENCODING 124
SWIDTH 241 0
DWIDTH 3 0
BBX 3 11 1 -2
BITMAP
20
20
40
40
40
40
40
40
40
80
80
ENDCHAR
STARTCHAR braceright
ENCODING 125
SWIDTH 337 0
DWIDTH 4 0
BBX 4 11 1 -2
BITMAP
20
10
10
20
20
30
40
40
40
40
C0
ENDCHAR
STARTCHAR asciitilde
ENCODING 126
SWIDTH 608 0
DWIDTH 7 0
BBX 7 3 0 2
BITMAP
62
92
8C
ENDCHAR
STARTCHAR space
ENCODING 160
SWIDTH 333 0
DWIDTH 3 0
BBX 1 1 0 0
BITMAP
00
ENDCHAR
STARTCHAR exclamdown
ENCODING 161
SWIDTH 265 0
DWIDTH 3 0
BBX 3 8 0 -2
BITMAP
20
00
40
40
40
40
80
80
ENDCHAR
STARTCHAR cent
ENCODING 162
SWIDTH 608 0
DWIDTH 7 0
BBX 5 9 2 0
BITMAP
08
18
78
A0
A0
A0
B0
F0
40
ENDCHAR
STARTCHAR sterling
ENCODING 163
SWIDTH 608 0
DWIDTH 7 0
BBX 6 9 1 0
BITMAP
1C
14
20
20
70
20
40
40
F8
ENDCHAR
STARTCHAR currency
ENCODING 164
SWIDTH 608 0
DWIDTH 7 0
BBX 8 9 0 0
BITMAP
43
3A
2C
44
44
44
48
74
86
ENDCHAR
STARTCHAR yen
ENCODING 165
SWIDTH 608 0
DWIDTH 7 0
BBX 7 9 1 0
BITMAP
E6
44
68
30
78
20
F0
20
E0
ENDCHAR
STARTCHAR brokenbar
ENCODING 166
SWIDTH 241 0
DWIDTH 3 0
BBX 3 11 1 -2
BITMAP
20
20
20
20
40
00
40
80
80
80
80
ENDCHAR
STARTCHAR section
ENCODING 167
SWIDTH 608 0
DWIDTH 7 0
BBX 6 11 1 -2
BITMAP
1C
24
20
30
58
44
34
08
04
88
F8
ENDCHAR
STARTCHAR dieresis
ENCODING 168
SWIDTH 560 0
DWIDTH 6 0
BBX 3 1 3 8
BITMAP
A0
ENDCHAR
STARTCHAR copyright
ENCODING 169
SWIDTH 843 0
DWIDTH 9 0
BBX 8 9 1 0
BITMAP
3C
43
9D
95
A1
A1
9D
43
3C
ENDCHAR
STARTCHAR ordfeminine
ENCODING 170
SWIDTH 458 0
DWIDTH 4 0
BBX 4 6 1 3
BITMAP
70
50
90
B0
F0
F0
ENDCHAR
STARTCHAR guillemotleft
ENCODING 171
SWIDTH 525 0
DWIDTH 6 0
BBX 5 6 1 0
BITMAP
28
50
90
A0
50
50
ENDCHAR
STARTCHAR logicalnot
ENCODING 172
SWIDTH 608 0
DWIDTH 7 0
BBX 6 4 1 1
BITMAP
FC
04
04
04
ENDCHAR
STARTCHAR hyphen
ENCODING 173
SWIDTH 313 0
DWIDTH 3 0
BBX 3 1 1 3
BITMAP
E0
ENDCHAR
STARTCHAR registered
ENCODING 174
SWIDTH 608 0
DWIDTH 7 0
BBX 5 6 2 3
BITMAP
70
E8
C8
E8
E8
70
ENDCHAR
STARTCHAR macron
ENCODING 175
SWIDTH 560 0
DWIDTH 6 0
BBX 3 1 3 8
BITMAP
E0
ENDCHAR
STARTCHAR degree
ENCODING 176
SWIDTH 277 0
DWIDTH 3 0
BBX 2 3 2 6
BITMAP
C0
C0
C0
ENDCHAR
STARTCHAR plusminus
ENCODING 177
SWIDTH 608 0
DWIDTH 7 0
BBX 7 8 0 0
BITMAP
08
08
7E
10
10
10
00
FC
ENDCHAR
STARTCHAR twosuperior
ENCODING 178
SWIDTH 365 0
DWIDTH 4 0
BBX 4 5 -5 4
BITMAP
70
50
60
80
E0
ENDCHAR
STARTCHAR threesuperior
ENCODING 179
SWIDTH 365 0
DWIDTH 4 0
BBX 3 5 -5 4
BITMAP
60
60
60
A0
E0
ENDCHAR
STARTCHAR acute
ENCODING 180
SWIDTH 560 0
DWIDTH 6 0
BBX 3 2 4 7
BITMAP
60
80
ENDCHAR
STARTCHAR mu
ENCODING 181
SWIDTH 663 0
DWIDTH 7 0
BBX 6 8 1 -2
BITMAP
CC
44
44
48
58
EC
80
80
ENDCHAR
STARTCHAR paragraph
ENCODING 182
SWIDTH 608 0
DWIDTH 7 0
BBX 5 11 2 -2
BITMAP
78
F0
F0
F0
50
50
50
50
50
50
60
ENDCHAR
STARTCHAR periodcentered
ENCODING 183
SWIDTH 608 0
DWIDTH 7 0
BBX 1 1 3 3
BITMAP
80
ENDCHAR
STARTCHAR cedilla
ENCODING 184
SWIDTH 560 0
DWIDTH 6 0
BBX 2 3 2 -2
BITMAP
40
40
C0
ENDCHAR
STARTCHAR onesuperior
ENCODING 185
SWIDTH 365 0
DWIDTH 4 0
BBX 3 5 -5 4
BITMAP
60
20
40
40
E0
ENDCHAR
STARTCHAR ordmasculine
ENCODING 186
SWIDTH 458 0
DWIDTH 4 0
BBX 4 6 1 3
BITMAP
30
50
90
90
90
E0
ENDCHAR
STARTCHAR guillemotright
ENCODING 187
SWIDTH 525 0
DWIDTH 6 0
BBX 5 6 1 0
BITMAP
50
50
28
48
50
A0
ENDCHAR
STARTCHAR onequarter
ENCODING 188
SWIDTH 766 0
DWIDTH 9 0
BBX 9 9 2 0
BITMAP
6080
2100
4200
4400
EB00
0900
1700
2100
4300
ENDCHAR
STARTCHAR onehalf
ENCODING 189
SWIDTH 766 0
DWIDTH 9 0
BBX 9 9 2 0
BITMAP
6080
2100
4200
4400
EB80
0A80
1300
2400
4700
ENDCHAR
STARTCHAR threequarters
ENCODING 190
SWIDTH 766 0
DWIDTH 9 0
BBX 9 9 2 0
BITMAP
6080
6100
6200
A400
EB00
0900
1700
2100
4300
ENDCHAR
STARTCHAR questiondown
ENCODING 191
SWIDTH 471 0
DWIDTH 5 0
BBX 4 8 0 -2
BITMAP
10
00
10
20
40
80
90
70
ENDCHAR
STARTCHAR Agrave
ENCODING 192
SWIDTH 747 0
DWIDTH 8 0
BBX 8 11 0 0
BITMAP
04
02
04
0C
0C
14
32
3E
42
42
C7
ENDCHAR
STARTCHAR Aacute
ENCODING 193
SWIDTH 747 0
DWIDTH 8 0
BBX 8 11 0 0
BITMAP
03
04
04
0C
0C
14
32
3E
42
42
C7
ENDCHAR
STARTCHAR Acircumflex
ENCODING 194
SWIDTH 747 0
DWIDTH 8 0
BBX 8 11 0 0
BITMAP
04
0A
04
0C
0C
14
32
3E
42
42
C7
ENDCHAR
STARTCHAR Atilde
ENCODING 195
SWIDTH 747 0
DWIDTH 8 0
BBX 8 10 0 0
BITMAP
0F
04
0C
0C
14
32
3E
42
42
C7
ENDCHAR
STARTCHAR Adieresis
ENCODING 196
SWIDTH 747 0
DWIDTH 8 0
BBX 8 10 0 0
BITMAP
0A
04
0C
0C
14
32
3E
42
42
C7
ENDCHAR
STARTCHAR Aring
ENCODING 197
SWIDTH 747 0
DWIDTH 8 0
BBX 8 11 0 0
BITMAP
06
06
04
0C
0C
14
32
3E
42
42
C7
ENDCHAR
STARTCHAR AE
ENCODING 198
SWIDTH 907 0
DWIDTH 10 0
BBX 11 9 0 0
BITMAP
03E0
0620
0E40
13C0
1240
3E00
2400
C440
CFC0
ENDCHAR
STARTCHAR Ccedilla
ENCODING 199
SWIDTH 714 0
DWIDTH 8 0
BBX 7 11 1 -2
BITMAP
1E
22
40
C0
80
80
80
C4
78
20
60
ENDCHAR
STARTCHAR Egrave
ENCODING 200
SWIDTH 569 0
DWIDTH 6 0
BBX 7 11 0 0
BITMAP
10
08
3E
32
20
24
3C
28
60
44
FC
ENDCHAR
STARTCHAR Eacute
ENCODING 201
SWIDTH 569 0
DWIDTH 6 0
BBX 7 11 0 0
BITMAP
06
08
3E
32
20
24
3C
28
60
44
FC
ENDCHAR
STARTCHAR Ecircumflex
ENCODING 202
SWIDTH 569 0
DWIDTH 6 0
BBX 7 11 0 0
BITMAP
08
14
3E
32
20
24
3C
28
60
44
FC
ENDCHAR
STARTCHAR Edieresis
ENCODING 203
SWIDTH 569 0
DWIDTH 6 0
BBX 7 10 0 0
BITMAP
14
3E
32
20
24
3C
28
60
44
FC
ENDCHAR
STARTCHAR Igrave
ENCODING 204
SWIDTH 325 0
DWIDTH 4 0
BBX 5 11 0 0
BITMAP
20
10
38
10
30
20
20
20
60
40
E0
ENDCHAR
STARTCHAR Iacute
ENCODING 205
SWIDTH 325 0
DWIDTH 4 0
BBX 6 11 0 0
BITMAP
0C
10
38
10
30
20
20
20
60
40
E0
ENDCHAR
STARTCHAR Icircumflex
ENCODING 206
SWIDTH 325 0
DWIDTH 4 0
BBX 5 11 0 0
BITMAP
10
28
38
10
30
20
20
20
60
40
E0
ENDCHAR
STARTCHAR Idieresis
ENCODING 207
SWIDTH 325 0
DWIDTH 4 0
BBX 5 10 0 0
BITMAP
28
38
10
30
20
20
20
60
40
E0
ENDCHAR
STARTCHAR Eth
ENCODING 208
SWIDTH 770 0
DWIDTH 8 0
BBX 9 9 0 0
BITMAP
3F00
3180
2080
2080
7880
2180
2100
4200
FC00
ENDCHAR
STARTCHAR Ntilde
ENCODING 209
SWIDTH 762 0
DWIDTH 8 0
BBX 10 10 0 0
BITMAP
0F00
21C0
3100
3100
2900
2900
2500
4700
4200
E200
ENDCHAR
STARTCHAR Ograve
ENCODING 210
SWIDTH 783 0
DWIDTH 9 0
BBX 8 11 1 0
BITMAP
08
04
1E
22
43
C1
83
82
82
C4
78
ENDCHAR
STARTCHAR Oacute
ENCODING 211
SWIDTH 783 0
DWIDTH 9 0
BBX 8 11 1 0
BITMAP
06
08
1E
22
43
C1
83
82
82
C4
78
ENDCHAR
STARTCHAR Ocircumflex
ENCODING 212
SWIDTH 783 0
DWIDTH 9 0
BBX 8 11 1 0
BITMAP
08
14
1E
22
43
C1
83
82
82
C4
78
ENDCHAR
STARTCHAR Otilde
ENCODING 213
SWIDTH 783 0
DWIDTH 9 0
BBX 8 10 1 0
BITMAP
1E
1E
22
43
C1
83
82
82
C4
78
ENDCHAR
STARTCHAR Odieresis
ENCODING 214
SWIDTH 783 0
DWIDTH 9 0
BBX 8 10 1 0
BITMAP
14
1E
22
43
C1
83
82
82
C4
78
ENDCHAR
STARTCHAR multiply
ENCODING 215
SWIDTH 608 0
DWIDTH 7 0
BBX 7 8 0 0
BITMAP
42
64
24
18
30
48
4C
84
ENDCHAR
STARTCHAR Oslash
ENCODING 216
SWIDTH 783 0
DWIDTH 9 0
BBX 9 9 1 0
BITMAP
0E80
3100
2100
4700
4900
5100
6200
4600
BC00
ENDCHAR
STARTCHAR Ugrave
ENCODING 217
SWIDTH 727 0
DWIDTH 8 0
BBX 8 11 2 0
BITMAP
10
08
E7
42
42
44
84
84
84
C8
78
ENDCHAR
STARTCHAR Uacute
ENCODING 218
SWIDTH 727 0
DWIDTH 8 0
BBX 8 11 2 0
BITMAP
0C
10
E7
42
42
44
84
84
84
C8
78
ENDCHAR
STARTCHAR Ucircumflex
ENCODING 219
SWIDTH 727 0
DWIDTH 8 0
BBX 8 11 2 0
BITMAP
08
14
E7
42
42
44
84
84
84
C8
78
ENDCHAR
STARTCHAR Udieresis
ENCODING 220
SWIDTH 727 0
DWIDTH 8 0
BBX 8 10 2 0
BITMAP
14
E7
42
42
44
84
84
84
C8
78
ENDCHAR
STARTCHAR Yacute
ENCODING 221
SWIDTH 663 0
DWIDTH 7 0
BBX 7 11 2 0
BITMAP
0C
10
E6
44
4C
38
30
20
20
20
70
ENDCHAR
STARTCHAR Thorn
ENCODING 222
SWIDTH 579 0
DWIDTH 6 0
BBX 7 9 0 0
BITMAP
38
10
3E
22
22
24
78
40
E0
ENDCHAR
STARTCHAR germandbls
ENCODING 223
SWIDTH 603 0
DWIDTH 7 0
BBX 6 11 1 -2
BITMAP
18
24
28
70
50
48
44
54
F8
80
80
ENDCHAR
STARTCHAR agrave
ENCODING 224
SWIDTH 608 0
DWIDTH 7 0
BBX 6 8 1 0
BITMAP
10
08
3C
44
48
88
B8
EC
ENDCHAR
STARTCHAR aacute
ENCODING 225
SWIDTH 608 0
DWIDTH 7 0
BBX 6 8 1 0
BITMAP
0C
10
3C
44
48
88
B8
EC
ENDCHAR
STARTCHAR acircumflex
ENCODING 226
SWIDTH 608 0
DWIDTH 7 0
BBX 6 8 1 0
BITMAP
08
14
3C
44
48
88
B8
EC
ENDCHAR
STARTCHAR atilde
ENCODING 227
SWIDTH 608 0
DWIDTH 7 0
BBX 6 7 1 0
BITMAP
3C
3C
44
48
88
B8
EC
ENDCHAR
STARTCHAR adieresis
ENCODING 228
SWIDTH 608 0
DWIDTH 7 0
BBX 6 7 1 0
BITMAP
14
3C
44
48
88
B8
EC
ENDCHAR
STARTCHAR aring
ENCODING 229
SWIDTH 608 0
DWIDTH 7 0
BBX 6 8 1 0
BITMAP
18
18
3C
44
48
88
B8
EC
ENDCHAR
STARTCHAR ae
ENCODING 230
SWIDTH 881 0
DWIDTH 10 0
BBX 9 6 1 0
BITMAP
3F80
4480
4880
9F00
B880
EF00
ENDCHAR
STARTCHAR ccedilla
ENCODING 231
SWIDTH 487 0
DWIDTH 5 0
BBX 5 8 1 -2
BITMAP
38
48
80
80
80
70
40
C0
ENDCHAR
STARTCHAR egrave
ENCODING 232
SWIDTH 518 0
DWIDTH 6 0
BBX 5 8 1 0
BITMAP
20
10
38
48
90
E0
88
70
ENDCHAR
STARTCHAR eacute
ENCODING 233
SWIDTH 518 0
DWIDTH 6 0
BBX 6 8 1 0
BITMAP
0C
10
38
48
90
E0
88
70
ENDCHAR
STARTCHAR ecircumflex
ENCODING 234
SWIDTH 518 0
DWIDTH 6 0
BBX 5 8 1 0
BITMAP
10
28
38
48
90
E0
88
70
ENDCHAR
STARTCHAR edieresis
ENCODING 235
SWIDTH 518 0
DWIDTH 6 0
BBX 5 7 1 0
BITMAP
28
38
48
90
E0
88
70
ENDCHAR
STARTCHAR igrave
ENCODING 236
SWIDTH 289 0
DWIDTH 3 0
BBX 3 8 1 0
BITMAP
40
20
C0
40
40
40
80
C0
ENDCHAR
STARTCHAR iacute
ENCODING 237
SWIDTH 289 0
DWIDTH 3 0
BBX 4 8 1 0
BITMAP
30
40
C0
40
40
40
80
C0
ENDCHAR
STARTCHAR icircumflex
ENCODING 238
SWIDTH 289 0
DWIDTH 3 0
BBX 3 8 1 0
BITMAP
40
A0
C0
40
40
40
80
C0
ENDCHAR
STARTCHAR idieresis
ENCODING 239
SWIDTH 289 0
DWIDTH 3 0
BBX 4 7 1 0
BITMAP
50
C0
40
40
40
80
C0
ENDCHAR
STARTCHAR eth
ENCODING 240
SWIDTH 562 0
DWIDTH 6 0
BBX 5 9 1 0
BITMAP
78
38
48
38
48
88
88
98
70
ENDCHAR
STARTCHAR ntilde
ENCODING 241
SWIDTH 631 0
DWIDTH 7 0
BBX 6 7 1 0
BITMAP
3C
DC
54
64
48
88
8C
ENDCHAR
STARTCHAR ograve
ENCODING 242
SWIDTH 560 0
DWIDTH 6 0
BBX 5 8 1 0
BITMAP
10
08
38
48
C8
88
98
F0
ENDCHAR
STARTCHAR oacute
ENCODING 243
SWIDTH 560 0
DWIDTH 6 0
BBX 6 8 1 0
BITMAP
0C
10
38
48
C8
88
98
F0
ENDCHAR
STARTCHAR ocircumflex
ENCODING 244
SWIDTH 560 0
DWIDTH 6 0
BBX 5 8 1 0
BITMAP
10
28
38
48
C8
88
98
F0
ENDCHAR
STARTCHAR otilde
ENCODING 245
SWIDTH 560 0
DWIDTH 6 0
BBX 6 7 1 0
BITMAP
3C
38
48
C8
88
98
F0
ENDCHAR
STARTCHAR odieresis
ENCODING 246
SWIDTH 560 0
DWIDTH 6 0
BBX 5 7 1 0
BITMAP
28
38
48
C8
88
98
F0
ENDCHAR
STARTCHAR divide
ENCODING 247
SWIDTH 608 0
DWIDTH 7 0
BBX 6 6 1 0
BITMAP
10
00
00
FC
00
20
ENDCHAR
STARTCHAR oslash
ENCODING 248
SWIDTH 560 0
DWIDTH 6 0
BBX 6 6 0 0
BITMAP
3C
64
54
F4
48
F0
ENDCHAR
STARTCHAR ugrave
ENCODING 249
SWIDTH 630 0
DWIDTH 7 0
BBX 6 8 1 0
BITMAP
10
08
CC
44
4C
98
98
EC
ENDCHAR
STARTCHAR uacute
ENCODING 250
SWIDTH 630 0
DWIDTH 7 0
BBX 6 8 1 0
BITMAP
0C
10
CC
44
4C
98
98
EC
ENDCHAR
STARTCHAR ucircumflex
ENCODING 251
SWIDTH 630 0
DWIDTH 7 0
BBX 6 8 1 0
BITMAP
08
14
CC
44
4C
98
98
EC
ENDCHAR
STARTCHAR udieresis
ENCODING 252
SWIDTH 630 0
DWIDTH 7 0
BBX 6 7 1 0
BITMAP
14
CC
44
4C
98
98
EC
ENDCHAR
STARTCHAR yacute
ENCODING 253
SWIDTH 558 0
DWIDTH 6 0
BBX 7 10 0 -2
BITMAP
06
08
66
22
24
28
18
20
20
C0
ENDCHAR
STARTCHAR thorn
ENCODING 254
SWIDTH 608 0
DWIDTH 7 0
BBX 6 11 1 -2
BITMAP
60
20
40
5C
74
64
48
48
F0
80
80
ENDCHAR
STARTCHAR ydieresis
ENCODING 255
SWIDTH 558 0
DWIDTH 6 0
BBX 7 9 0 -2
BITMAP
14
66
22
24
28
18
20
20
C0
ENDCHAR
STARTCHAR Amacron
ENCODING 256
SWIDTH 747 0
DWIDTH 8 0
BBX 8 11 0 0
BITMAP
1C
00
04
0C
0C
14
32
3E
42
42
C7
ENDCHAR
STARTCHAR amacron
ENCODING 257
SWIDTH 608 0
DWIDTH 7 0
BBX 6 8 1 0
BITMAP
38
00
3C
44
48
88
B8
EC
ENDCHAR
STARTCHAR Abreve
ENCODING 258
SWIDTH 747 0
DWIDTH 8 0
BBX 8 12 0 0
BITMAP
12
1C
00
04
0C
0C
14
32
3E
42
42
C7
ENDCHAR
STARTCHAR abreve
ENCODING 259
SWIDTH 608 0
DWIDTH 7 0
BBX 6 9 1 0
BITMAP
24
38
00
3C
44
48
88
B8
EC
ENDCHAR
STARTCHAR Aogonek
ENCODING 260
SWIDTH 747 0
DWIDTH 8 0
BBX 8 11 0 -2
BITMAP
04
0C
0C
14
32
3E
42
42
C7
18
18
ENDCHAR
STARTCHAR aogonek
ENCODING 261
SWIDTH 608 0
DWIDTH 7 0
BBX 6 8 1 -2
BITMAP
3C
44
48
88
B8
EC
30
30
ENDCHAR
STARTCHAR Cacute
ENCODING 262
SWIDTH 714 0
DWIDTH 8 0
BBX 7 12 1 0
BITMAP
0C
10
00
1E
22
40
C0
80
80
80
C4
78
ENDCHAR
STARTCHAR cacute
ENCODING 263
SWIDTH 487 0
DWIDTH 5 0
BBX 5 9 1 0
BITMAP
18
20
00
38
48
80
80
80
70
ENDCHAR
STARTCHAR Ccircumflex
ENCODING 264
SWIDTH 714 0
DWIDTH 8 0
BBX 7 12 1 0
BITMAP
08
14
00
1E
22
40
C0
80
80
80
C4
78
ENDCHAR
STARTCHAR ccircumflex
ENCODING 265
SWIDTH 487 0
DWIDTH 5 0
BBX 5 9 1 0
BITMAP
10
28
00
38
48
80
80
80
70
ENDCHAR
STARTCHAR Cdotaccent
ENCODING 266
SWIDTH 714 0
DWIDTH 8 0
BBX 7 11 1 0
BITMAP
08
00
1E
22
40
C0
80
80
80
C4
78
ENDCHAR
STARTCHAR cdotaccent
ENCODING 267
SWIDTH 487 0
DWIDTH 5 0
BBX 5 8 1 0
BITMAP
10
00
38
48
80
80
80
70
ENDCHAR
STARTCHAR Ccaron
ENCODING 268
SWIDTH 714 0
DWIDTH 8 0
BBX 7 12 1 0
BITMAP
14
08
00
1E
22
40
C0
80
80
80
C4
78
ENDCHAR
STARTCHAR ccaron
ENCODING 269
SWIDTH 487 0
DWIDTH 5 0
BBX 5 9 1 0
BITMAP
28
10
00
38
48
80
80
80
70
ENDCHAR
STARTCHAR Dcaron
ENCODING 270
SWIDTH 770 0
DWIDTH 8 0
BBX 9 12 0 0
BITMAP
0A00
0400
0000
3F00
3180
2080
2080
2080
2180
6100
4200
FC00
ENDCHAR
STARTCHAR dcaron
ENCODING 271
SWIDTH 843 0
DWIDTH 10 0
BBX 10 9 1 0
BITMAP
0CC0
0440
0440
3880
4800
4800
8800
B800
E800
ENDCHAR
STARTCHAR Dcroat
ENCODING 272
SWIDTH 770 0
DWIDTH 8 0
BBX 9 9 0 0
BITMAP
3F00
3180
2080
2080
7880
2180
2100
4200
FC00
ENDCHAR
STARTCHAR dcroat
ENCODING 273
SWIDTH 608 0
DWIDTH 7 0
BBX 7 9 1 0
BITMAP
0C
04
3E
38
48
48
88
B8
E8
ENDCHAR
STARTCHAR Emacron
ENCODING 274
SWIDTH 569 0
DWIDTH 6 0
BBX 7 11 0 0
BITMAP
38
00
3E
32
20
24
3C
28
60
44
FC
ENDCHAR
STARTCHAR emacron
ENCODING 275
SWIDTH 518 0
DWIDTH 6 0
BBX 5 8 1 0
BITMAP
38
00
38
48
90
E0
88
70
ENDCHAR
STARTCHAR Ebreve
ENCODING 276
SWIDTH 569 0
DWIDTH 6 0
BBX 7 12 0 0
BITMAP
24
38
00
3E
32
20
24
3C
28
60
44
FC
ENDCHAR
STARTCHAR ebreve
ENCODING 277
SWIDTH 518 0
DWIDTH 6 0
BBX 5 9 1 0
BITMAP
48
70
00
38
48
90
E0
88
70
ENDCHAR
STARTCHAR Edotaccent
ENCODING 278
SWIDTH 569 0
DWIDTH 6 0
BBX 7 11 0 0
BITMAP
10
00
3E
32
20
24
3C
28
60
44
FC
ENDCHAR
STARTCHAR edotaccent
ENCODING 279
SWIDTH 518 0
DWIDTH 6 0
BBX 5 8 1 0
BITMAP
10
00
38
48
90
E0
88
70
ENDCHAR
STARTCHAR Eogonek
ENCODING 280
SWIDTH 569 0
DWIDTH 6 0
BBX 7 11 0 -2
BITMAP
3E
32
20
24
3C
28
60
44
FC
30
30
ENDCHAR
STARTCHAR eogonek
ENCODING 281
SWIDTH 518 0
DWIDTH 6 0
BBX 5 8 1 -2
BITMAP
38
48
90
E0
88
70
30
30
ENDCHAR
STARTCHAR Ecaron
ENCODING 282
SWIDTH 569 0
DWIDTH 6 0
BBX 7 12 0 0
BITMAP
28
10
00
3E
32
20
24
3C
28
60
44
FC
ENDCHAR
STARTCHAR ecaron
ENCODING 283
SWIDTH 518 0
DWIDTH 6 0
BBX 5 9 1 0
BITMAP
28
10
00
38
48
90
E0
88
70
ENDCHAR
STARTCHAR Gcircumflex
ENCODING 284
SWIDTH 756 0
DWIDTH 8 0
BBX 7 12 1 0
BITMAP
08
14
00
1E
22
40
C0
80
8E
84
C4
7C
ENDCHAR
STARTCHAR gcircumflex
ENCODING 285
SWIDTH 602 0
DWIDTH 7 0
BBX 6 11 1 -2
BITMAP
10
28
00
1C
24
44
48
D8
68
88
F0
ENDCHAR
STARTCHAR Gbreve
ENCODING 286
SWIDTH 756 0
DWIDTH 8 0
BBX 7 12 1 0
BITMAP
24
38
00
1E
22
40
C0
80
8E
84
C4
7C
ENDCHAR
STARTCHAR gbreve
ENCODING 287
SWIDTH 602 0
DWIDTH 7 0
BBX 6 11 1 -2
BITMAP
24
38
00
1C
24
44
48
D8
68
88
F0
ENDCHAR
STARTCHAR Gdotaccent
ENCODING 288
SWIDTH 756 0
DWIDTH 8 0
BBX 7 11 1 0
BITMAP
08
00
1E
22
40
C0
80
8E
84
C4
7C
ENDCHAR
STARTCHAR gdotaccent
ENCODING 289
SWIDTH 602 0
DWIDTH 7 0
BBX 6 10 1 -2
BITMAP
10
00
1C
24
44
48
D8
68
88
F0
ENDCHAR
STARTCHAR Gcommaaccent
ENCODING 290
SWIDTH 756 0
DWIDTH 8 0
BBX 7 14 1 -5
BITMAP
1E
22
40
C0
80
8E
84
C4
7C
00
10
30
10
20
ENDCHAR
STARTCHAR gcommaaccent
ENCODING 291
SWIDTH 602 0
DWIDTH 7 0
BBX 6 13 1 -2
BITMAP
08
10
10
18
00
1C
24
44
48
D8
68
88
F0
ENDCHAR
STARTCHAR Hcircumflex
ENCODING 292
SWIDTH 776 0
DWIDTH 9 0
BBX 10 12 0 0
BITMAP
0400
0A00
0000
39C0
3080
2180
2100
3F00
2100
6100
4300
E700
ENDCHAR
STARTCHAR hcircumflex
ENCODING 293
SWIDTH 631 0
DWIDTH 7 0
BBX 6 12 1 0
BITMAP
20
50
00
60
20
40
5C
74
44
48
88
8C
ENDCHAR
STARTCHAR Hbar
ENCODING 294
SWIDTH 776 0
DWIDTH 9 0
BBX 10 9 0 0
BITMAP
39C0
3080
FFC0
2100
3F00
2100
6100
4300
E700
ENDCHAR
STARTCHAR hbar
ENCODING 295
SWIDTH 631 0
DWIDTH 7 0
BBX 6 9 1 0
BITMAP
60
20
F8
5C
74
44
48
88
8C
ENDCHAR
STARTCHAR Itilde
ENCODING 296
SWIDTH 325 0
DWIDTH 4 0
BBX 5 11 0 0
BITMAP
78
00
38
10
30
20
20
20
60
40
E0
ENDCHAR
STARTCHAR itilde
ENCODING 297
SWIDTH 289 0
DWIDTH 3 0
BBX 4 8 0 0
BITMAP
F0
00
60
20
20
20
40
60
ENDCHAR
STARTCHAR Imacron
ENCODING 298
SWIDTH 325 0
DWIDTH 4 0
BBX 5 11 0 0
BITMAP
38
00
38
10
30
20
20
20
60
40
E0
ENDCHAR
STARTCHAR imacron
ENCODING 299
SWIDTH 289 0
DWIDTH 3 0
BBX 3 8 1 0
BITMAP
E0
00
C0
40
40
40
80
C0
ENDCHAR
STARTCHAR Ibreve
ENCODING 300
SWIDTH 325 0
DWIDTH 4 0
BBX 5 12 0 0
BITMAP
48
70
00
38
10
30
20
20
20
60
40
E0
ENDCHAR
STARTCHAR ibreve
ENCODING 301
SWIDTH 289 0
DWIDTH 3 0
BBX 4 9 0 0
BITMAP
90
E0
00
60
20
20
20
40
60
ENDCHAR
STARTCHAR Iogonek
ENCODING 302
SWIDTH 325 0
DWIDTH 4 0
BBX 5 11 0 -2
BITMAP
38
10
30
20
20
20
60
40
E0
60
60
ENDCHAR
STARTCHAR iogonek
ENCODING 303
SWIDTH 289 0
DWIDTH 3 0
BBX 3 11 1 -2
BITMAP
20
00
00
E0
40
40
40
80
C0
C0
C0
ENDCHAR
STARTCHAR Idotaccent
ENCODING 304
SWIDTH 325 0
DWIDTH 4 0
BBX 5 11 0 0
BITMAP
10
00
38
10
30
20
20
20
60
40
E0
ENDCHAR
STARTCHAR dotlessi
ENCODING 305
SWIDTH 289 0
DWIDTH 3 0
BBX 2 6 1 0
BITMAP
C0
40
40
40
80
C0
ENDCHAR
STARTCHAR IJ
ENCODING 306
SWIDTH 731 0
DWIDTH 9 0
BBX 10 11 0 -2
BITMAP
39C0
1080
3080
2180
2100
2100
6100
4100
E100
0A00
0E00
ENDCHAR
STARTCHAR ij
ENCODING 307
SWIDTH 618 0
DWIDTH 7 0
BBX 7 11 1 -2
BITMAP
22
00
00
E6
44
44
44
84
C4
28
30
ENDCHAR
STARTCHAR Jcircumflex
ENCODING 308
SWIDTH 422 0
DWIDTH 5 0
BBX 6 14 0 -2
BITMAP
08
14
00
1C
08
08
18
10
10
10
10
10
A0
E0
ENDCHAR
STARTCHAR jcircumflex
ENCODING 309
SWIDTH 343 0
DWIDTH 4 0
BBX 5 11 0 -2
BITMAP
10
28
00
18
10
10
10
10
10
A0
C0
ENDCHAR
STARTCHAR Kcommaaccent
ENCODING 310
SWIDTH 698 0
DWIDTH 8 0
BBX 8 14 0 -5
BITMAP
7B
32
24
38
30
78
48
44
EE
00
10
30
10
20
ENDCHAR
STARTCHAR kcommaaccent
ENCODING 311
SWIDTH 560 0
DWIDTH 6 0
BBX 6 14 1 -5
BITMAP
60
20
40
44
58
60
70
98
8C
00
10
30
10
20
ENDCHAR
STARTCHAR kgreenlandic
ENCODING 312
SWIDTH 560 0
DWIDTH 6 0
BBX 6 6 1 0
BITMAP
44
58
60
70
98
8C
ENDCHAR
STARTCHAR Lacute
ENCODING 313
SWIDTH 572 0
DWIDTH 6 0
BBX 6 12 0 0
BITMAP
18
20
00
78
30
20
20
20
20
40
44
FC
ENDCHAR
STARTCHAR lacute
ENCODING 314
SWIDTH 289 0
DWIDTH 3 0
BBX 4 12 1 0
BITMAP
30
40
00
60
20
40
40
40
40
40
80
C0
ENDCHAR
STARTCHAR Lcommaaccent
ENCODING 315
SWIDTH 572 0
DWIDTH 6 0
BBX 6 14 0 -5
BITMAP
78
30
20
20
20
20
40
44
FC
00
10
30
10
20
ENDCHAR
STARTCHAR lcommaaccent
ENCODING 316
SWIDTH 289 0
DWIDTH 3 0
BBX 3 14 1 -5
BITMAP
60
20
40
40
40
40
40
80
C0
00
40
C0
40
80
ENDCHAR
STARTCHAR Lcaron
ENCODING 317
SWIDTH 808 0
DWIDTH 9 0
BBX 10 9 0 0
BITMAP
78C0
3040
2040
2080
2000
2000
4000
4400
FC00
ENDCHAR
STARTCHAR lcaron
ENCODING 318
SWIDTH 540 0
DWIDTH 6 0
BBX 6 9 1 0
BITMAP
6C
24
44
48
40
40
40
80
C0
ENDCHAR
STARTCHAR Ldot
ENCODING 319
SWIDTH 1151 0
DWIDTH 13 0
BBX 10 9 0 0
BITMAP
7800
3000
2000
2000
2000
2040
4000
4400
FC00
ENDCHAR
STARTCHAR ldot
ENCODING 320
SWIDTH 883 0
DWIDTH 10 0
BBX 6 9 1 0
BITMAP
60
20
40
40
40
44
40
80
C0
ENDCHAR
STARTCHAR Lslash
ENCODING 321
SWIDTH 572 0
DWIDTH 6 0
BBX 6 9 0 0
BITMAP
38
30
20
30
60
A0
60
44
FC
ENDCHAR
STARTCHAR lslash
ENCODING 322
SWIDTH 289 0
DWIDTH 3 0
BBX 4 9 0 0
BITMAP
70
20
20
20
F0
40
40
40
E0
ENDCHAR
STARTCHAR Nacute
ENCODING 323
SWIDTH 762 0
DWIDTH 8 0
BBX 10 12 0 0
BITMAP
0300
0400
0000
21C0
3100
3100
2900
2900
2500
4700
4200
E200
ENDCHAR
STARTCHAR nacute
ENCODING 324
SWIDTH 631 0
DWIDTH 7 0
BBX 6 9 1 0
BITMAP
18
20
00
DC
54
64
48
88
8C
ENDCHAR
STARTCHAR Ncommaaccent
ENCODING 325
SWIDTH 762 0
DWIDTH 8 0
BBX 10 14 0 -5
BITMAP
21C0
3100
3100
2900
2900
2500
4700
4200
E200
0000
0800
1800
0800
1000
ENDCHAR
STARTCHAR ncommaaccent
ENCODING 326
SWIDTH 631 0
DWIDTH 7 0
BBX 6 11 1 -5
BITMAP
DC
54
64
48
88
8C
00
10
30
10
20
ENDCHAR
STARTCHAR Ncaron
ENCODING 327
SWIDTH 762 0
DWIDTH 8 0
BBX 10 12 0 0
BITMAP
0A00
0400
0000
21C0
3100
3100
2900
2900
2500
4700
4200
E200
ENDCHAR
STARTCHAR ncaron
ENCODING 328
SWIDTH 631 0
DWIDTH 7 0
BBX 6 9 1 0
BITMAP
28
10
00
DC
54
64
48
88
8C
ENDCHAR
STARTCHAR napostrophe
ENCODING 329
SWIDTH 883 0
DWIDTH 10 0
BBX 8 9 2 0
BITMAP
C0
40
40
B7
15
19
12
22
23
ENDCHAR
STARTCHAR Eng
ENCODING 330
SWIDTH 762 0
DWIDTH 8 0
BBX 10 11 0 -2
BITMAP
21C0
3100
3100
2900
2900
2500
4700
4300
E300
0A00
0C00
ENDCHAR
STARTCHAR eng
ENCODING 331
SWIDTH 631 0
DWIDTH 7 0
BBX 6 8 1 -2
BITMAP
DC
54
64
48
88
88
50
60
ENDCHAR
STARTCHAR Omacron
ENCODING 332
SWIDTH 783 0
DWIDTH 9 0
BBX 8 11 1 0
BITMAP
1C
00
1E
22
43
C1
83
82
82
C4
78
ENDCHAR
STARTCHAR omacron
ENCODING 333
SWIDTH 560 0
DWIDTH 6 0
BBX 5 8 1 0
BITMAP
38
00
38
48
C8
88
98
F0
ENDCHAR
STARTCHAR Obreve
ENCODING 334
SWIDTH 783 0
DWIDTH 9 0
BBX 8 12 1 0
BITMAP
12
1C
00
1E
22
43
C1
83
82
82
C4
78
ENDCHAR
STARTCHAR obreve
ENCODING 335
SWIDTH 560 0
DWIDTH 6 0
BBX 5 9 1 0
BITMAP
48
70
00
38
48
C8
88
98
F0
ENDCHAR
STARTCHAR Ohungarumlaut
ENCODING 336
SWIDTH 783 0
DWIDTH 9 0
BBX 8 12 1 0
BITMAP
0E
18
00
1E
22
43
C1
83
82
82
C4
78
ENDCHAR
STARTCHAR ohungarumlaut
ENCODING 337
SWIDTH 560 0
DWIDTH 6 0
BBX 6 9 1 0
BITMAP
1C
30
00
38
48
C8
88
98
F0
ENDCHAR
STARTCHAR OE
ENCODING 338
SWIDTH 1005 0
DWIDTH 11 0
BBX 11 9 1 0
BITMAP
1FE0
2220
4200
C240
83C0
8640
8400
C440
7FC0
ENDCHAR
STARTCHAR oe
ENCODING 339
SWIDTH 892 0
DWIDTH 10 0
BBX 9 6 1 0
BITMAP
3B80
4C80
8880
8F00
9880
6700
ENDCHAR
STARTCHAR Racute
ENCODING 340
SWIDTH 686 0
DWIDTH 8 0
BBX 7 12 0 0
BITMAP
0C
10
00
7C
26
22
24
38
68
48
44
E6
ENDCHAR
STARTCHAR racute
ENCODING 341
SWIDTH 470 0
DWIDTH 5 0
BBX 5 9 1 0
BITMAP
18
20
00
D8
68
60
40
80
80
ENDCHAR
STARTCHAR Rcommaaccent
ENCODING 342
SWIDTH 686 0
DWIDTH 8 0
BBX 7 14 0 -5
BITMAP
7C
26
22
24
38
68
48
44
E6
00
10
30
10
20
ENDCHAR
STARTCHAR rcommaaccent
ENCODING 343
SWIDTH 470 0
DWIDTH 5 0
BBX 5 11 1 -5
BITMAP
D8
68
60
40
80
80
00
40
C0
40
80
ENDCHAR
STARTCHAR Rcaron
ENCODING 344
SWIDTH 686 0
DWIDTH 8 0
BBX 7 12 0 0
BITMAP
28
10
00
7C
26
22
24
38
68
48
44
E6
ENDCHAR
STARTCHAR rcaron
ENCODING 345
SWIDTH 470 0
DWIDTH 5 0
BBX 5 9 1 0
BITMAP
50
20
00
D8
68
60
40
80
80
ENDCHAR
STARTCHAR Sacute
ENCODING 346
SWIDTH 549 0
DWIDTH 6 0
BBX 6 12 1 0
BITMAP
0C
10
00
3C
64
44
20
18
08
8C
88
F0
ENDCHAR
STARTCHAR sacute
ENCODING 347
SWIDTH 440 0
DWIDTH 5 0
BBX 5 9 1 0
BITMAP
18
20
00
70
50
40
20
90
E0
ENDCHAR
STARTCHAR Scircumflex
ENCODING 348
SWIDTH 549 0
DWIDTH 6 0
BBX 6 12 1 0
BITMAP
10
28
00
3C
64
44
20
18
08
8C
88
F0
ENDCHAR
STARTCHAR scircumflex
ENCODING 349
SWIDTH 440 0
DWIDTH 5 0
BBX 4 9 1 0
BITMAP
20
50
00
70
50
40
20
90
E0
ENDCHAR
STARTCHAR Scedilla
ENCODING 350
SWIDTH 549 0
DWIDTH 6 0
BBX 6 11 1 -2
BITMAP
3C
64
44
20
18
08
8C
88
F0
20
60
ENDCHAR
STARTCHAR scedilla
ENCODING 351
SWIDTH 440 0
DWIDTH 5 0
BBX 4 8 1 -2
BITMAP
70
50
40
20
90
E0
40
C0
ENDCHAR
STARTCHAR Scaron
ENCODING 352
SWIDTH 549 0
DWIDTH 6 0
BBX 6 11 1 0
BITMAP
14
08
3C
64
44
20
18
08
8C
88
F0
ENDCHAR
STARTCHAR scaron
ENCODING 353
SWIDTH 440 0
DWIDTH 5 0
BBX 5 8 1 0
BITMAP
28
10
70
50
40
20
90
E0
ENDCHAR
STARTCHAR Tcommaaccent
ENCODING 354
SWIDTH 663 0
DWIDTH 7 0
BBX 7 11 2 -2
BITMAP
FE
92
10
30
20
20
20
20
F0
20
60
ENDCHAR
STARTCHAR tcommaaccent
ENCODING 355
SWIDTH 355 0
DWIDTH 4 0
BBX 4 11 1 -2
BITMAP
20
40
40
F0
40
40
80
80
E0
40
C0
ENDCHAR
STARTCHAR Tcaron
ENCODING 356
SWIDTH 663 0
DWIDTH 7 0
BBX 7 12 2 0
BITMAP
28
10
00
FE
92
10
30
20
20
20
20
F0
ENDCHAR
STARTCHAR tcaron
ENCODING 357
SWIDTH 602 0
DWIDTH 7 0
BBX 7 9 1 0
BITMAP
26
42
42
F4
40
40
80
80
E0
ENDCHAR
STARTCHAR Tbar
ENCODING 358
SWIDTH 663 0
DWIDTH 7 0
BBX 7 9 2 0
BITMAP
FE
92
10
30
7C
20
20
20
F0
ENDCHAR
STARTCHAR tbar
ENCODING 359
SWIDTH 355 0
DWIDTH 4 0
BBX 5 9 1 0
BITMAP
20
40
40
F0
40
40
F8
80
E0
ENDCHAR
STARTCHAR Utilde
ENCODING 360
SWIDTH 727 0
DWIDTH 8 0
BBX 8 11 2 0
BITMAP
3C
00
E7
42
42
44
84
84
84
C8
78
ENDCHAR
STARTCHAR utilde
ENCODING 361
SWIDTH 630 0
DWIDTH 7 0
BBX 6 8 1 0
BITMAP
78
00
CC
44
4C
98
98
EC
ENDCHAR
STARTCHAR Umacron
ENCODING 362
SWIDTH 727 0
DWIDTH 8 0
BBX 8 11 2 0
BITMAP
1C
00
E7
42
42
44
84
84
84
C8
78
ENDCHAR
STARTCHAR umacron
ENCODING 363
SWIDTH 630 0
DWIDTH 7 0
BBX 6 8 1 0
BITMAP
38
00
CC
44
4C
98
98
EC
ENDCHAR
STARTCHAR Ubreve
ENCODING 364
SWIDTH 727 0
DWIDTH 8 0
BBX 8 12 2 0
BITMAP
24
38
00
E7
42
42
44
84
84
84
C8
78
ENDCHAR
STARTCHAR ubreve
ENCODING 365
SWIDTH 630 0
DWIDTH 7 0
BBX 6 9 1 0
BITMAP
48
70
00
CC
44
4C
98
98
EC
ENDCHAR
STARTCHAR Uring
ENCODING 366
SWIDTH 727 0
DWIDTH 8 0
BBX 8 12 2 0
BITMAP
18
18
00
E7
42
42
44
84
84
84
C8
78
ENDCHAR
STARTCHAR uring
ENCODING 367
SWIDTH 630 0
DWIDTH 7 0
BBX 6 9 1 0
BITMAP
30
30
00
CC
44
4C
98
98
EC
ENDCHAR
STARTCHAR Uhungarumlaut
ENCODING 368
SWIDTH 727 0
DWIDTH 8 0
BBX 8 12 2 0
BITMAP
0E
18
00
E7
42
42
44
84
84
84
C8
78
ENDCHAR
STARTCHAR uhungarumlaut
ENCODING 369
SWIDTH 630 0
DWIDTH 7 0
BBX 6 9 1 0
BITMAP
1C
30
00
CC
44
4C
98
98
EC
ENDCHAR
STARTCHAR Uogonek
ENCODING 370
SWIDTH 727 0
DWIDTH 8 0
BBX 8 11 2 -2
BITMAP
E7
42
42
44
84
84
84
C8
78
30
30
ENDCHAR
STARTCHAR uogonek
ENCODING 371
SWIDTH 630 0
DWIDTH 7 0
BBX 6 8 1 -2
BITMAP
CC
44
4C
98
98
EC
30
30
ENDCHAR
STARTCHAR Wcircumflex
ENCODING 372
SWIDTH 878 0
DWIDTH 10 0
BBX 10 12 1 0
BITMAP
0800
1400
0000
E4C0
4C80
4C80
5500
5500
6600
6600
6400
4400
ENDCHAR
STARTCHAR wcircumflex
ENCODING 373
SWIDTH 805 0
DWIDTH 9 0
BBX 9 9 1 0
BITMAP
0800
1400
0000
C980
4980
5D00
3600
2600
2400
ENDCHAR
STARTCHAR Ycircumflex
ENCODING 374
SWIDTH 663 0
DWIDTH 7 0
BBX 7 12 2 0
BITMAP
10
28
00
E6
44
4C
38
30
20
20
20
70
ENDCHAR
STARTCHAR ycircumflex
ENCODING 375
SWIDTH 558 0
DWIDTH 6 0
BBX 7 11 0 -2
BITMAP
10
28
00
66
22
24
28
18
20
20
C0
ENDCHAR
STARTCHAR Ydieresis
ENCODING 376
SWIDTH 663 0
DWIDTH 7 0
BBX 7 10 2 0
BITMAP
28
E6
44
4C
38
30
20
20
20
70
ENDCHAR
STARTCHAR Zacute
ENCODING 377
SWIDTH 633 0
DWIDTH 7 0
BBX 7 12 1 0
BITMAP
0C
10
00
3E
24
4C
08
10
20
60
44
FC
ENDCHAR
STARTCHAR zacute
ENCODING 378
SWIDTH 536 0
DWIDTH 6 0
BBX 6 9 0 0
BITMAP
18
20
00
7C
48
10
20
48
F8
ENDCHAR
STARTCHAR Zdotaccent
ENCODING 379
SWIDTH 633 0
DWIDTH 7 0
BBX 7 11 1 0
BITMAP
10
00
3E
24
4C
08
10
20
60
44
FC
ENDCHAR
STARTCHAR zdotaccent
ENCODING 380
SWIDTH 536 0
DWIDTH 6 0
BBX 6 8 0 0
BITMAP
10
00
7C
48
10
20
48
F8
ENDCHAR
STARTCHAR Zcaron
ENCODING 381
SWIDTH 633 0
DWIDTH 7 0
BBX 7 11 1 0
BITMAP
0A
04
3E
24
4C
08
10
20
60
44
FC
ENDCHAR
STARTCHAR zcaron
ENCODING 382
SWIDTH 536 0
DWIDTH 6 0
BBX 6 8 0 0
BITMAP
14
08
7C
48
10
20
48
F8
ENDCHAR
STARTCHAR uni0186
ENCODING 390
SWIDTH 714 0
DWIDTH 8 0
BBX 7 9 1 0
BITMAP
3C
46
02
02
02
06
04
88
F0
ENDCHAR
STARTCHAR uni0189
ENCODING 393
SWIDTH 770 0
DWIDTH 8 0
BBX 9 9 0 0
BITMAP
3F00
3180
2080
2080
7880
2180
2100
4200
FC00
ENDCHAR
STARTCHAR uni018E
ENCODING 398
SWIDTH 569 0
DWIDTH 6 0
BBX 7 9 0 0
BITMAP
7E
44
0C
28
78
48
08
98
F8
ENDCHAR
STARTCHAR florin
ENCODING 402
SWIDTH 608 0
DWIDTH 7 0
BBX 5 11 2 -2
BITMAP
18
28
60
40
E0
40
40
40
C0
80
80
ENDCHAR
STARTCHAR uni0197
ENCODING 407
SWIDTH 325 0
DWIDTH 4 0
BBX 5 9 0 0
BITMAP
38
10
30
20
F8
20
60
40
E0
ENDCHAR
STARTCHAR uni019A
ENCODING 410
SWIDTH 289 0
DWIDTH 3 0
BBX 5 9 0 0
BITMAP
30
10
20
20
F8
20
20
40
60
ENDCHAR
STARTCHAR uni019D
ENCODING 413
SWIDTH 762 0
DWIDTH 8 0
BBX 12 11 -2 -2
BITMAP
0870
0C40
0C40
0A40
0A40
0940
11C0
1080
1080
A000
C000
ENDCHAR
STARTCHAR uni019F
ENCODING 415
SWIDTH 783 0
DWIDTH 9 0
BBX 8 9 1 0
BITMAP
1E
22
43
C1
FF
82
82
C4
78
ENDCHAR
STARTCHAR Ohorn
ENCODING 416
SWIDTH 783 0
DWIDTH 9 0
BBX 10 9 1 0
BITMAP
1EC0
2240
4340
C180
8300
8200
8200
C400
7800
ENDCHAR
STARTCHAR ohorn
ENCODING 417
SWIDTH 560 0
DWIDTH 6 0
BBX 7 6 1 0
BITMAP
3E
4A
CA
8C
98
F0
ENDCHAR
STARTCHAR Uhorn
ENCODING 431
SWIDTH 727 0
DWIDTH 8 0
BBX 10 9 2 0
BITMAP
E7C0
4240
4240
4480
8400
8400
8400
C800
7800
ENDCHAR
STARTCHAR uhorn
ENCODING 432
SWIDTH 630 0
DWIDTH 7 0
BBX 8 6 1 0
BITMAP
CF
45
4D
9A
98
EC
ENDCHAR
STARTCHAR uni01B5
ENCODING 437
SWIDTH 633 0
DWIDTH 7 0
BBX 7 9 1 0
BITMAP
3E
24
4C
08
7C
20
60
44
FC
ENDCHAR
STARTCHAR uni01B6
ENCODING 438
SWIDTH 536 0
DWIDTH 6 0
BBX 6 6 0 0
BITMAP
7C
48
7C
20
48
F8
ENDCHAR
STARTCHAR uni01BB
ENCODING 443
SWIDTH 608 0
DWIDTH 7 0
BBX 6 9 1 0
BITMAP
38
44
04
04
FC
20
60
40
F8
ENDCHAR
STARTCHAR uni01BC
ENCODING 444
SWIDTH 608 0
DWIDTH 7 0
BBX 6 9 1 0
BITMAP
3C
40
40
70
18
08
08
90
F0
ENDCHAR
STARTCHAR uni01C0
ENCODING 448
SWIDTH 241 0
DWIDTH 3 0
BBX 3 11 1 -2
BITMAP
20
20
40
40
40
40
40
40
40
80
80
ENDCHAR
STARTCHAR uni01C2
ENCODING 450
SWIDTH 608 0
DWIDTH 7 0
BBX 7 11 0 -2
BITMAP
08
08
10
10
FE
10
FE
10
10
20
20
ENDCHAR
STARTCHAR uni01C3
ENCODING 451
SWIDTH 265 0
DWIDTH 3 0
BBX 3 9 1 0
BITMAP
20
20
40
40
40
40
40
00
80
ENDCHAR
STARTCHAR uni01CD
ENCODING 461
SWIDTH 747 0
DWIDTH 8 0
BBX 8 12 0 0
BITMAP
14
08
00
04
0C
0C
14
32
3E
42
42
C7
ENDCHAR
STARTCHAR uni01CE
ENCODING 462
SWIDTH 608 0
DWIDTH 7 0
BBX 6 9 1 0
BITMAP
28
10
00
3C
44
48
88
B8
EC
ENDCHAR
STARTCHAR uni01CF
ENCODING 463
SWIDTH 325 0
DWIDTH 4 0
BBX 5 12 0 0
BITMAP
28
10
00
38
10
30
20
20
20
60
40
E0
ENDCHAR
STARTCHAR uni01D0
ENCODING 464
SWIDTH 289 0
DWIDTH 3 0
BBX 3 9 1 0
BITMAP
A0
40
00
C0
40
40
40
80
C0
ENDCHAR
STARTCHAR uni01D1
ENCODING 465
SWIDTH 783 0
DWIDTH 9 0
BBX 8 12 1 0
BITMAP
14
08
00
1E
22
43
C1
83
82
82
C4
78
ENDCHAR
STARTCHAR uni01D2
ENCODING 466
SWIDTH 560 0
DWIDTH 6 0
BBX 5 9 1 0
BITMAP
28
10
00
38
48
C8
88
98
F0
ENDCHAR
STARTCHAR uni01D3
ENCODING 467
SWIDTH 727 0
DWIDTH 8 0
BBX 8 12 2 0
BITMAP
14
08
00
E7
42
42
44
84
84
84
C8
78
ENDCHAR
STARTCHAR uni01D4
ENCODING 468
SWIDTH 630 0
DWIDTH 7 0
BBX 6 9 1 0
BITMAP
28
10
00
CC
44
4C
98
98
EC
ENDCHAR
STARTCHAR uni01D5
ENCODING 469
SWIDTH 727 0
DWIDTH 8 0
BBX 8 12 2 0
BITMAP
1C
00
14
E7
42
42
44
84
84
84
C8
78
ENDCHAR
STARTCHAR uni01D6
ENCODING 470
SWIDTH 630 0
DWIDTH 7 0
BBX 6 9 1 0
BITMAP
38
00
14
CC
44
4C
98
98
EC
ENDCHAR
STARTCHAR uni01D7
ENCODING 471
SWIDTH 727 0
DWIDTH 8 0
BBX 8 13 2 0
BITMAP
0C
10
00
14
E7
42
42
44
84
84
84
C8
78
ENDCHAR
STARTCHAR uni01D8
ENCODING 472
SWIDTH 630 0
DWIDTH 7 0
BBX 6 10 1 0
BITMAP
0C
10
00
14
CC
44
4C
98
98
EC
ENDCHAR
STARTCHAR uni01D9
ENCODING 473
SWIDTH 727 0
DWIDTH 8 0
BBX 8 13 2 0
BITMAP
14
08
00
14
E7
42
42
44
84
84
84
C8
78
ENDCHAR
STARTCHAR uni01DA
ENCODING 474
SWIDTH 630 0
DWIDTH 7 0
BBX 6 10 1 0
BITMAP
28
10
00
14
CC
44
4C
98
98
EC
ENDCHAR
STARTCHAR uni01DB
ENCODING 475
SWIDTH 727 0
DWIDTH 8 0
BBX 8 13 2 0
BITMAP
10
08
00
14
E7
42
42
44
84
84
84
C8
78
ENDCHAR
STARTCHAR uni01DC
ENCODING 476
SWIDTH 630 0
DWIDTH 7 0
BBX 6 10 1 0
BITMAP
20
10
00
14
CC
44
4C
98
98
EC
ENDCHAR
STARTCHAR uni01DD
ENCODING 477
SWIDTH 518 0
DWIDTH 6 0
BBX 5 6 1 0
BITMAP
70
88
38
48
90
E0
ENDCHAR
STARTCHAR uni01DE
ENCODING 478
SWIDTH 747 0
DWIDTH 8 0
BBX 8 12 0 0
BITMAP
1C
00
0A
04
0C
0C
14
32
3E
42
42
C7
ENDCHAR
STARTCHAR uni01DF
ENCODING 479
SWIDTH 608 0
DWIDTH 7 0
BBX 6 9 1 0
BITMAP
38
00
14
3C
44
48
88
B8
EC
ENDCHAR
STARTCHAR uni01E0
ENCODING 480
SWIDTH 747 0
DWIDTH 8 0
BBX 8 13 0 0
BITMAP
1C
00
08
00
04
0C
0C
14
32
3E
42
42
C7
ENDCHAR
STARTCHAR uni01E1
ENCODING 481
SWIDTH 608 0
DWIDTH 7 0
BBX 6 10 1 0
BITMAP
38
00
10
00
3C
44
48
88
B8
EC
ENDCHAR
STARTCHAR uni01E2
ENCODING 482
SWIDTH 907 0
DWIDTH 10 0
BBX 11 11 0 0
BITMAP
0700
0000
03E0
0620
0E40
13C0
1240
3E00
2400
C440
CFC0
ENDCHAR
STARTCHAR uni01E3
ENCODING 483
SWIDTH 881 0
DWIDTH 10 0
BBX 9 8 1 0
BITMAP
0E00
0000
3F80
4480
4880
9F00
B880
EF00
ENDCHAR
STARTCHAR uni01E4
ENCODING 484
SWIDTH 756 0
DWIDTH 8 0
BBX 8 9 1 0
BITMAP
1E
22
40
C0
80
8E
9F
C4
7C
ENDCHAR
STARTCHAR uni01E5
ENCODING 485
SWIDTH 602 0
DWIDTH 7 0
BBX 6 8 1 -2
BITMAP
1C
24
44
48
D8
FC
88
F0
ENDCHAR
STARTCHAR Gcaron
ENCODING 486
SWIDTH 756 0
DWIDTH 8 0
BBX 7 12 1 0
BITMAP
14
08
00
1E
22
40
C0
80
8E
84
C4
7C
ENDCHAR
STARTCHAR gcaron
ENCODING 487
SWIDTH 602 0
DWIDTH 7 0
BBX 6 11 1 -2
BITMAP
28
10
00
1C
24
44
48
D8
68
88
F0
ENDCHAR
STARTCHAR uni01E8
ENCODING 488
SWIDTH 698 0
DWIDTH 8 0
BBX 8 12 0 0
BITMAP
14
08
00
7B
32
24
38
30
78
48
44
EE
ENDCHAR
STARTCHAR uni01E9
ENCODING 489
SWIDTH 560 0
DWIDTH 6 0
BBX 6 12 1 0
BITMAP
50
20
00
60
20
40
44
58
60
70
98
8C
ENDCHAR
STARTCHAR uni01EA
ENCODING 490
SWIDTH 783 0
DWIDTH 9 0
BBX 8 11 1 -2
BITMAP
1E
22
43
C1
83
82
82
C4
78
30
30
ENDCHAR
STARTCHAR uni01EB
ENCODING 491
SWIDTH 560 0
DWIDTH 6 0
BBX 5 8 1 -2
BITMAP
38
48
C8
88
98
F0
60
60
ENDCHAR
STARTCHAR uni01EC
ENCODING 492
SWIDTH 783 0
DWIDTH 9 0
BBX 8 13 1 -2
BITMAP
1C
00
1E
22
43
C1
83
82
82
C4
78
30
30
ENDCHAR
STARTCHAR uni01ED
ENCODING 493
SWIDTH 560 0
DWIDTH 6 0
BBX 5 10 1 -2
BITMAP
70
00
38
48
C8
88
98
F0
60
60
ENDCHAR
STARTCHAR uni01F0
ENCODING 496
SWIDTH 343 0
DWIDTH 4 0
BBX 5 11 0 -2
BITMAP
28
10
00
18
10
10
10
10
10
A0
C0
ENDCHAR
STARTCHAR uni01F4
ENCODING 500
SWIDTH 756 0
DWIDTH 8 0
BBX 7 12 1 0
BITMAP
0C
10
00
1E
22
40
C0
80
8E
84
C4
7C
ENDCHAR
STARTCHAR uni01F5
ENCODING 501
SWIDTH 602 0
DWIDTH 7 0
BBX 6 11 1 -2
BITMAP
0C
10
00
1C
24
44
48
D8
68
88
F0
ENDCHAR
STARTCHAR uni01F8
ENCODING 504
SWIDTH 762 0
DWIDTH 8 0
BBX 10 12 0 0
BITMAP
0800
0400
0000
21C0
3100
3100
2900
2900
2500
4700
4200
E200
ENDCHAR
STARTCHAR uni01F9
ENCODING 505
SWIDTH 631 0
DWIDTH 7 0
BBX 6 9 1 0
BITMAP
20
10
00
DC
54
64
48
88
8C
ENDCHAR
STARTCHAR Aringacute
ENCODING 506
SWIDTH 747 0
DWIDTH 8 0
BBX 8 14 0 0
BITMAP
06
08
00
06
06
04
0C
0C
14
32
3E
42
42
C7
ENDCHAR
STARTCHAR aringacute
ENCODING 507
SWIDTH 608 0
DWIDTH 7 0
BBX 6 11 1 0
BITMAP
0C
10
00
18
18
3C
44
48
88
B8
EC
ENDCHAR
STARTCHAR AEacute
ENCODING 508
SWIDTH 907 0
DWIDTH 10 0
BBX 11 12 0 0
BITMAP
0180
0200
0000
03E0
0620
0E40
13C0
1240
3E00
2400
C440
CFC0
ENDCHAR
STARTCHAR aeacute
ENCODING 509
SWIDTH 881 0
DWIDTH 10 0
BBX 9 9 1 0
BITMAP
0600
0800
0000
3F80
4480
4880
9F00
B880
EF00
ENDCHAR
STARTCHAR Oslashacute
ENCODING 510
SWIDTH 783 0
DWIDTH 9 0
BBX 9 12 1 0
BITMAP
0600
0800
0000
0E80
3100
2100
4700
4900
5100
6200
4600
BC00
ENDCHAR
STARTCHAR oslashacute
ENCODING 511
SWIDTH 560 0
DWIDTH 6 0
BBX 6 9 0 0
BITMAP
0C
10
00
3C
64
54
F4
48
F0
ENDCHAR
STARTCHAR Scommaaccent
ENCODING 536
SWIDTH 549 0
DWIDTH 6 0
BBX 6 14 1 -5
BITMAP
3C
64
44
20
18
08
8C
88
F0
00
10
30
10
20
ENDCHAR
STARTCHAR scommaaccent
ENCODING 537
SWIDTH 440 0
DWIDTH 5 0
BBX 4 11 1 -5
BITMAP
70
50
40
20
90
E0
00
20
60
20
40
ENDCHAR
STARTCHAR Tcommaaccent
ENCODING 538
SWIDTH 663 0
DWIDTH 7 0
BBX 7 14 2 -5
BITMAP
FE
92
10
30
20
20
20
20
F0
00
10
30
10
20
ENDCHAR
STARTCHAR tcommaaccent
ENCODING 539
SWIDTH 355 0
DWIDTH 4 0
BBX 4 14 1 -5
BITMAP
20
40
40
F0
40
40
80
80
E0
00
40
C0
40
80
ENDCHAR
STARTCHAR uni021E
ENCODING 542
SWIDTH 776 0
DWIDTH 9 0
BBX 10 12 0 0
BITMAP
0A00
0400
0000
39C0
3080
2180
2100
3F00
2100
6100
4300
E700
ENDCHAR
STARTCHAR uni021F
ENCODING 543
SWIDTH 631 0
DWIDTH 7 0
BBX 6 12 1 0
BITMAP
50
20
00
60
20
40
5C
74
44
48
88
8C
ENDCHAR
STARTCHAR uni0226
ENCODING 550
SWIDTH 747 0
DWIDTH 8 0
BBX 8 11 0 0
BITMAP
08
00
04
0C
0C
14
32
3E
42
42
C7
ENDCHAR
STARTCHAR uni0227
ENCODING 551
SWIDTH 608 0
DWIDTH 7 0
BBX 6 8 1 0
BITMAP
10
00
3C
44
48
88
B8
EC
ENDCHAR
STARTCHAR uni0228
ENCODING 552
SWIDTH 569 0
DWIDTH 6 0
BBX 7 11 0 -2
BITMAP
3E
32
20
24
3C
28
60
44
FC
10
30
ENDCHAR
STARTCHAR uni0229
ENCODING 553
SWIDTH 518 0
DWIDTH 6 0
BBX 5 8 1 -2
BITMAP
38
48
90
E0
88
70
20
60
ENDCHAR
STARTCHAR uni022A
ENCODING 554
SWIDTH 783 0
DWIDTH 9 0
BBX 8 12 1 0
BITMAP
1C
00
14
1E
22
43
C1
83
82
82
C4
78
ENDCHAR
STARTCHAR uni022B
ENCODING 555
SWIDTH 560 0
DWIDTH 6 0
BBX 5 9 1 0
BITMAP
38
00
28
38
48
C8
88
98
F0
ENDCHAR
STARTCHAR uni022C
ENCODING 556
SWIDTH 783 0
DWIDTH 9 0
BBX 8 12 1 0
BITMAP
1C
00
1E
1E
22
43
C1
83
82
82
C4
78
ENDCHAR
STARTCHAR uni022D
ENCODING 557
SWIDTH 560 0
DWIDTH 6 0
BBX 6 9 1 0
BITMAP
38
00
3C
38
48
C8
88
98
F0
ENDCHAR
STARTCHAR uni022E
ENCODING 558
SWIDTH 783 0
DWIDTH 9 0
BBX 8 11 1 0
BITMAP
08
00
1E
22
43
C1
83
82
82
C4
78
ENDCHAR
STARTCHAR uni022F
ENCODING 559
SWIDTH 560 0
DWIDTH 6 0
BBX 5 8 1 0
BITMAP
10
00
38
48
C8
88
98
F0
ENDCHAR
STARTCHAR uni0230
ENCODING 560
SWIDTH 783 0
DWIDTH 9 0
BBX 8 13 1 0
BITMAP
1C
00
08
00
1E
22
43
C1
83
82
82
C4
78
ENDCHAR
STARTCHAR uni0231
ENCODING 561
SWIDTH 560 0
DWIDTH 6 0
BBX 5 10 1 0
BITMAP
38
00
10
00
38
48
C8
88
98
F0
ENDCHAR
STARTCHAR uni0232
ENCODING 562
SWIDTH 663 0
DWIDTH 7 0
BBX 7 11 2 0
BITMAP
38
00
E6
44
4C
38
30
20
20
20
70
ENDCHAR
STARTCHAR uni0233
ENCODING 563
SWIDTH 558 0
DWIDTH 6 0
BBX 7 10 0 -2
BITMAP
38
00
66
22
24
28
18
20
20
C0
ENDCHAR
STARTCHAR uni0250
ENCODING 592
SWIDTH 608 0
DWIDTH 7 0
BBX 6 6 1 0
BITMAP
DC
74
44
48
88
F0
ENDCHAR
STARTCHAR uni0259
ENCODING 601
SWIDTH 518 0
DWIDTH 6 0
BBX 5 6 1 0
BITMAP
70
88
38
48
90
E0
ENDCHAR
STARTCHAR uni025F
ENCODING 607
SWIDTH 380 0
DWIDTH 4 0
BBX 5 11 1 -5
BITMAP
08
08
18
10
10
10
10
70
20
A0
C0
ENDCHAR
STARTCHAR uni0265
ENCODING 613
SWIDTH 631 0
DWIDTH 7 0
BBX 6 9 1 -3
BITMAP
C4
44
48
88
B8
E8
08
10
18
ENDCHAR
STARTCHAR uni0275
ENCODING 629
SWIDTH 560 0
DWIDTH 6 0
BBX 5 6 1 0
BITMAP
38
48
F8
88
98
F0
ENDCHAR
STARTCHAR uni0279
ENCODING 633
SWIDTH 470 0
DWIDTH 5 0
BBX 5 6 1 0
BITMAP
08
08
10
30
B0
D8
ENDCHAR
STARTCHAR uni0287
ENCODING 647
SWIDTH 355 0
DWIDTH 4 0
BBX 4 9 1 0
BITMAP
70
10
10
20
20
F0
20
20
40
ENDCHAR
STARTCHAR uni0289
ENCODING 649
SWIDTH 630 0
DWIDTH 7 0
BBX 6 6 1 0
BITMAP
CC
44
FC
98
98
EC
ENDCHAR
STARTCHAR uni028C
ENCODING 652
SWIDTH 558 0
DWIDTH 6 0
BBX 6 6 1 0
BITMAP
10
30
50
D0
88
8C
ENDCHAR
STARTCHAR uni028D
ENCODING 653
SWIDTH 805 0
DWIDTH 9 0
BBX 9 6 1 0
BITMAP
1200
3200
3600
5D00
C900
C980
ENDCHAR
STARTCHAR uni028E
ENCODING 654
SWIDTH 558 0
DWIDTH 6 0
BBX 7 8 0 0
BITMAP
06
08
08
30
28
48
88
CC
ENDCHAR
STARTCHAR uni029E
ENCODING 670
SWIDTH 560 0
DWIDTH 6 0
BBX 6 9 1 -3
BITMAP
C4
64
38
18
68
88
08
10
18
ENDCHAR
STARTCHAR uni02BB
ENCODING 699
SWIDTH 265 0
DWIDTH 3 0
BBX 2 4 2 5
BITMAP
40
80
80
C0
ENDCHAR
STARTCHAR afii57929
ENCODING 700
SWIDTH 265 0
DWIDTH 3 0
BBX 2 4 2 5
BITMAP
C0
40
40
80
ENDCHAR
STARTCHAR afii64937
ENCODING 701
SWIDTH 265 0
DWIDTH 3 0
BBX 2 4 2 5
BITMAP
C0
80
80
40
ENDCHAR
STARTCHAR circumflex
ENCODING 710
SWIDTH 560 0
DWIDTH 6 0
BBX 3 2 3 7
BITMAP
40
A0
ENDCHAR
STARTCHAR caron
ENCODING 711
SWIDTH 560 0
DWIDTH 6 0
BBX 3 2 4 7
BITMAP
A0
40
ENDCHAR
STARTCHAR uni02C8
ENCODING 712
SWIDTH 231 0
DWIDTH 3 0
BBX 1 4 2 5
BITMAP
80
80
80
80
ENDCHAR
STARTCHAR macron
ENCODING 713
SWIDTH 560 0
DWIDTH 6 0
BBX 3 1 3 8
BITMAP
E0
ENDCHAR
STARTCHAR uni02CA
ENCODING 714
SWIDTH 560 0
DWIDTH 6 0
BBX 3 2 4 7
BITMAP
60
80
ENDCHAR
STARTCHAR uni02CB
ENCODING 715
SWIDTH 560 0
DWIDTH 6 0
BBX 2 2 3 7
BITMAP
80
40
ENDCHAR
STARTCHAR uni02CD
ENCODING 717
SWIDTH 560 0
DWIDTH 6 0
BBX 3 1 3 -2
BITMAP
E0
ENDCHAR
STARTCHAR uni02CE
ENCODING 718
SWIDTH 560 0
DWIDTH 6 0
BBX 2 2 3 -3
BITMAP
80
40
ENDCHAR
STARTCHAR uni02CF
ENCODING 719
SWIDTH 560 0
DWIDTH 6 0
BBX 3 2 4 -3
BITMAP
60
80
ENDCHAR
STARTCHAR breve
ENCODING 728
SWIDTH 560 0
DWIDTH 6 0
BBX 4 2 3 7
BITMAP
90
E0
ENDCHAR
STARTCHAR dotaccent
ENCODING 729
SWIDTH 560 0
DWIDTH 6 0
BBX 1 1 4 8
BITMAP
80
ENDCHAR
STARTCHAR ring
ENCODING 730
SWIDTH 560 0
DWIDTH 6 0
BBX 2 2 4 7
BITMAP
C0
C0
ENDCHAR
STARTCHAR ogonek
ENCODING 731
SWIDTH 560 0
DWIDTH 6 0
BBX 2 2 2 -2
BITMAP
C0
C0
ENDCHAR
STARTCHAR tilde
ENCODING 732
SWIDTH 560 0
DWIDTH 6 0
BBX 4 1 3 8
BITMAP
F0
ENDCHAR
STARTCHAR hungarumlaut
ENCODING 733
SWIDTH 560 0
DWIDTH 6 0
BBX 4 2 3 7
BITMAP
70
C0
ENDCHAR
STARTCHAR uni02EE
ENCODING 750
SWIDTH 457 0
DWIDTH 5 0
BBX 4 4 2 5
BITMAP
F0
50
50
A0
ENDCHAR
STARTCHAR uni037E
ENCODING 894
SWIDTH 265 0
DWIDTH 3 0
BBX 3 8 0 -2
BITMAP
60
00
00
00
40
C0
40
80
ENDCHAR
STARTCHAR tonos
ENCODING 900
SWIDTH 560 0
DWIDTH 6 0
BBX 3 2 4 7
BITMAP
60
80
ENDCHAR
STARTCHAR dieresistonos
ENCODING 901
SWIDTH 560 0
DWIDTH 6 0
BBX 4 4 3 8
BITMAP
30
40
00
A0
ENDCHAR
STARTCHAR anoteleia
ENCODING 903
SWIDTH 608 0
DWIDTH 7 0
BBX 1 1 3 3
BITMAP
80
ENDCHAR
STARTCHAR mu
ENCODING 956
SWIDTH 663 0
DWIDTH 7 0
BBX 6 8 1 -2
BITMAP
CC
44
44
48
58
EC
80
80
ENDCHAR
STARTCHAR uni1E00
ENCODING 7680
SWIDTH 747 0
DWIDTH 8 0
BBX 8 12 0 -3
BITMAP
04
0C
0C
14
32
3E
42
42
C7
00
18
18
ENDCHAR
STARTCHAR uni1E01
ENCODING 7681
SWIDTH 608 0
DWIDTH 7 0
BBX 6 9 1 -3
BITMAP
3C
44
48
88
B8
EC
00
30
30
ENDCHAR
STARTCHAR uni1E02
ENCODING 7682
SWIDTH 606 0
DWIDTH 7 0
BBX 7 11 0 0
BITMAP
08
00
3E
12
22
24
38
24
66
44
F8
ENDCHAR
STARTCHAR uni1E03
ENCODING 7683
SWIDTH 596 0
DWIDTH 7 0
BBX 6 11 1 0
BITMAP
20
00
60
20
40
5C
64
64
48
88
F0
ENDCHAR
STARTCHAR uni1E04
ENCODING 7684
SWIDTH 606 0
DWIDTH 7 0
BBX 7 11 0 -2
BITMAP
3E
12
22
24
38
24
66
44
F8
00
10
ENDCHAR
STARTCHAR uni1E05
ENCODING 7685
SWIDTH 596 0
DWIDTH 7 0
BBX 6 11 1 -2
BITMAP
60
20
40
5C
64
64
48
88
F0
00
20
ENDCHAR
STARTCHAR uni1E06
ENCODING 7686
SWIDTH 606 0
DWIDTH 7 0
BBX 7 11 0 -2
BITMAP
3E
12
22
24
38
24
66
44
F8
00
38
ENDCHAR
STARTCHAR uni1E07
ENCODING 7687
SWIDTH 596 0
DWIDTH 7 0
BBX 6 11 1 -2
BITMAP
60
20
40
5C
64
64
48
88
F0
00
70
ENDCHAR
STARTCHAR uni1E08
ENCODING 7688
SWIDTH 714 0
DWIDTH 8 0
BBX 7 14 1 -2
BITMAP
0C
10
00
1E
22
40
C0
80
80
80
C4
78
20
60
ENDCHAR
STARTCHAR uni1E09
ENCODING 7689
SWIDTH 487 0
DWIDTH 5 0
BBX 5 11 1 -2
BITMAP
18
20
00
38
48
80
80
80
70
40
C0
ENDCHAR
STARTCHAR uni1E0A
ENCODING 7690
SWIDTH 770 0
DWIDTH 8 0
BBX 9 11 0 0
BITMAP
0400
0000
3F00
3180
2080
2080
2080
2180
6100
4200
FC00
ENDCHAR
STARTCHAR uni1E0B
ENCODING 7691
SWIDTH 608 0
DWIDTH 7 0
BBX 6 11 1 0
BITMAP
08
00
0C
04
04
38
48
48
88
B8
E8
ENDCHAR
STARTCHAR uni1E0C
ENCODING 7692
SWIDTH 770 0
DWIDTH 8 0
BBX 9 11 0 -2
BITMAP
3F00
3180
2080
2080
2080
2180
6100
4200
FC00
0000
1000
ENDCHAR
STARTCHAR uni1E0D
ENCODING 7693
SWIDTH 608 0
DWIDTH 7 0
BBX 6 11 1 -2
BITMAP
0C
04
04
38
48
48
88
B8
E8
00
20
ENDCHAR
STARTCHAR uni1E0E
ENCODING 7694
SWIDTH 770 0
DWIDTH 8 0
BBX 9 11 0 -2
BITMAP
3F00
3180
2080
2080
2080
2180
6100
4200
FC00
0000
3800
ENDCHAR
STARTCHAR uni1E0F
ENCODING 7695
SWIDTH 608 0
DWIDTH 7 0
BBX 6 11 1 -2
BITMAP
0C
04
04
38
48
48
88
B8
E8
00
70
ENDCHAR
STARTCHAR uni1E10
ENCODING 7696
SWIDTH 770 0
DWIDTH 8 0
BBX 9 11 0 -2
BITMAP
3F00
3180
2080
2080
2080
2180
6100
4200
FC00
1000
3000
ENDCHAR
STARTCHAR uni1E11
ENCODING 7697
SWIDTH 608 0
DWIDTH 7 0
BBX 6 11 1 -2
BITMAP
0C
04
04
38
48
48
88
B8
E8
20
60
ENDCHAR
STARTCHAR uni1E12
ENCODING 7698
SWIDTH 770 0
DWIDTH 8 0
BBX 9 12 0 -3
BITMAP
3F00
3180
2080
2080
2080
2180
6100
4200
FC00
0000
1000
2800
ENDCHAR
STARTCHAR uni1E13
ENCODING 7699
SWIDTH 608 0
DWIDTH 7 0
BBX 6 12 1 -3
BITMAP
0C
04
04
38
48
48
88
B8
E8
00
20
50
ENDCHAR
STARTCHAR uni1E14
ENCODING 7700
SWIDTH 569 0
DWIDTH 6 0
BBX 7 14 0 0
BITMAP
10
08
00
38
00
3E
32
20
24
3C
28
60
44
FC
ENDCHAR
STARTCHAR uni1E15
ENCODING 7701
SWIDTH 518 0
DWIDTH 6 0
BBX 5 11 1 0
BITMAP
20
10
00
38
00
38
48
90
E0
88
70
ENDCHAR
STARTCHAR uni1E16
ENCODING 7702
SWIDTH 569 0
DWIDTH 6 0
BBX 7 14 0 0
BITMAP
0C
10
00
38
00
3E
32
20
24
3C
28
60
44
FC
ENDCHAR
STARTCHAR uni1E17
ENCODING 7703
SWIDTH 518 0
DWIDTH 6 0
BBX 5 11 1 0
BITMAP
18
20
00
38
00
38
48
90
E0
88
70
ENDCHAR
STARTCHAR uni1E18
ENCODING 7704
SWIDTH 569 0
DWIDTH 6 0
BBX 7 12 0 -3
BITMAP
3E
32
20
24
3C
28
60
44
FC
00
10
28
ENDCHAR
STARTCHAR uni1E19
ENCODING 7705
SWIDTH 518 0
DWIDTH 6 0
BBX 5 9 1 -3
BITMAP
38
48
90
E0
88
70
00
20
50
ENDCHAR
STARTCHAR uni1E1A
ENCODING 7706
SWIDTH 569 0
DWIDTH 6 0
BBX 7 11 0 -2
BITMAP
3E
32
20
24
3C
28
60
44
FC
00
78
ENDCHAR
STARTCHAR uni1E1B
ENCODING 7707
SWIDTH 518 0
DWIDTH 6 0
BBX 5 8 1 -2
BITMAP
38
48
90
E0
88
70
00
78
ENDCHAR
STARTCHAR uni1E1C
ENCODING 7708
SWIDTH 569 0
DWIDTH 6 0
BBX 7 14 0 -2
BITMAP
24
38
00
3E
32
20
24
3C
28
60
44
FC
10
30
ENDCHAR
STARTCHAR uni1E1D
ENCODING 7709
SWIDTH 518 0
DWIDTH 6 0
BBX 5 11 1 -2
BITMAP
48
70
00
38
48
90
E0
88
70
20
60
ENDCHAR
STARTCHAR uni1E1E
ENCODING 7710
SWIDTH 551 0
DWIDTH 6 0
BBX 7 11 0 0
BITMAP
10
00
3E
32
20
24
3C
28
40
40
E0
ENDCHAR
STARTCHAR uni1E1F
ENCODING 7711
SWIDTH 380 0
DWIDTH 4 0
BBX 5 13 1 -2
BITMAP
10
00
18
28
20
70
40
40
40
40
C0
80
80
ENDCHAR
STARTCHAR uni1E20
ENCODING 7712
SWIDTH 756 0
DWIDTH 8 0
BBX 7 11 1 0
BITMAP
1C
00
1E
22
40
C0
80
8E
84
C4
7C
ENDCHAR
STARTCHAR uni1E21
ENCODING 7713
SWIDTH 602 0
DWIDTH 7 0
BBX 6 10 1 -2
BITMAP
38
00
1C
24
44
48
D8
68
88
F0
ENDCHAR
STARTCHAR uni1E22
ENCODING 7714
SWIDTH 776 0
DWIDTH 9 0
BBX 10 11 0 0
BITMAP
0400
0000
39C0
3080
2180
2100
3F00
2100
6100
4300
E700
ENDCHAR
STARTCHAR uni1E23
ENCODING 7715
SWIDTH 631 0
DWIDTH 7 0
BBX 6 11 1 0
BITMAP
20
00
60
20
40
5C
74
44
48
88
8C
ENDCHAR
STARTCHAR uni1E24
ENCODING 7716
SWIDTH 776 0
DWIDTH 9 0
BBX 10 11 0 -2
BITMAP
39C0
3080
2180
2100
3F00
2100
6100
4300
E700
0000
0800
ENDCHAR
STARTCHAR uni1E25
ENCODING 7717
SWIDTH 631 0
DWIDTH 7 0
BBX 6 11 1 -2
BITMAP
60
20
40
5C
74
44
48
88
8C
00
10
ENDCHAR
STARTCHAR uni1E26
ENCODING 7718
SWIDTH 776 0
DWIDTH 9 0
BBX 10 11 0 0
BITMAP
0A00
0000
39C0
3080
2180
2100
3F00
2100
6100
4300
E700
ENDCHAR
STARTCHAR uni1E27
ENCODING 7719
SWIDTH 631 0
DWIDTH 7 0
BBX 6 11 1 0
BITMAP
50
00
60
20
40
5C
74
44
48
88
8C
ENDCHAR
STARTCHAR uni1E28
ENCODING 7720
SWIDTH 776 0
DWIDTH 9 0
BBX 10 11 0 -2
BITMAP
39C0
3080
2180
2100
3F00
2100
6100
4300
EF00
0800
1800
ENDCHAR
STARTCHAR uni1E29
ENCODING 7721
SWIDTH 631 0
DWIDTH 7 0
BBX 6 11 1 -2
BITMAP
60
20
40
5C
74
44
48
88
9C
10
30
ENDCHAR
STARTCHAR uni1E2A
ENCODING 7722
SWIDTH 776 0
DWIDTH 9 0
BBX 10 12 0 -3
BITMAP
39C0
3080
2180
2100
3F00
2100
6100
4300
E700
0000
1200
1C00
ENDCHAR
STARTCHAR uni1E2B
ENCODING 7723
SWIDTH 631 0
DWIDTH 7 0
BBX 6 12 1 -3
BITMAP
60
20
40
5C
74
44
48
88
8C
00
48
70
ENDCHAR
STARTCHAR uni1E2C
ENCODING 7724
SWIDTH 325 0
DWIDTH 4 0
BBX 5 11 0 -2
BITMAP
38
10
30
20
20
20
60
40
E0
00
F0
ENDCHAR
STARTCHAR uni1E2D
ENCODING 7725
SWIDTH 289 0
DWIDTH 3 0
BBX 4 11 0 -2
BITMAP
10
00
00
70
20
20
20
40
60
00
F0
ENDCHAR
STARTCHAR uni1E2E
ENCODING 7726
SWIDTH 325 0
DWIDTH 4 0
BBX 5 13 0 0
BITMAP
18
20
00
28
38
10
30
20
20
20
60
40
E0
ENDCHAR
STARTCHAR uni1E2F
ENCODING 7727
SWIDTH 289 0
DWIDTH 3 0
BBX 4 10 1 0
BITMAP
30
40
00
50
C0
40
40
40
80
C0
ENDCHAR
STARTCHAR uni1E30
ENCODING 7728
SWIDTH 698 0
DWIDTH 8 0
BBX 8 12 0 0
BITMAP
0C
10
00
7B
32
24
38
30
78
48
44
EE
ENDCHAR
STARTCHAR uni1E31
ENCODING 7729
SWIDTH 560 0
DWIDTH 6 0
BBX 6 12 1 0
BITMAP
18
20
00
60
20
40
44
58
60
70
98
8C
ENDCHAR
STARTCHAR uni1E32
ENCODING 7730
SWIDTH 698 0
DWIDTH 8 0
BBX 8 11 0 -2
BITMAP
7B
32
24
38
30
78
48
44
EE
00
10
ENDCHAR
STARTCHAR uni1E33
ENCODING 7731
SWIDTH 560 0
DWIDTH 6 0
BBX 6 11 1 -2
BITMAP
60
20
40
44
58
60
70
98
8C
00
20
ENDCHAR
STARTCHAR uni1E34
ENCODING 7732
SWIDTH 698 0
DWIDTH 8 0
BBX 8 11 0 -2
BITMAP
7B
32
24
38
30
78
48
44
EE
00
38
ENDCHAR
STARTCHAR uni1E35
ENCODING 7733
SWIDTH 560 0
DWIDTH 6 0
BBX 6 11 1 -2
BITMAP
60
20
40
44
58
60
70
98
8C
00
70
ENDCHAR
STARTCHAR uni1E36
ENCODING 7734
SWIDTH 572 0
DWIDTH 6 0
BBX 6 11 0 -2
BITMAP
78
30
20
20
20
20
40
44
FC
00
20
ENDCHAR
STARTCHAR uni1E37
ENCODING 7735
SWIDTH 289 0
DWIDTH 3 0
BBX 3 11 1 -2
BITMAP
60
20
40
40
40
40
40
80
C0
00
40
ENDCHAR
STARTCHAR uni1E38
ENCODING 7736
SWIDTH 572 0
DWIDTH 6 0
BBX 6 13 0 -2
BITMAP
70
00
78
30
20
20
20
20
40
44
FC
00
20
ENDCHAR
STARTCHAR uni1E39
ENCODING 7737
SWIDTH 289 0
DWIDTH 3 0
BBX 3 13 1 -2
BITMAP
E0
00
60
20
40
40
40
40
40
80
C0
00
40
ENDCHAR
STARTCHAR uni1E3A
ENCODING 7738
SWIDTH 572 0
DWIDTH 6 0
BBX 6 11 0 -2
BITMAP
78
30
20
20
20
20
40
44
FC
00
70
ENDCHAR
STARTCHAR uni1E3B
ENCODING 7739
SWIDTH 289 0
DWIDTH 3 0
BBX 3 11 1 -2
BITMAP
60
20
40
40
40
40
40
80
C0
00
E0
ENDCHAR
STARTCHAR uni1E3C
ENCODING 7740
SWIDTH 572 0
DWIDTH 6 0
BBX 6 12 0 -3
BITMAP
78
30
20
20
20
20
40
44
FC
00
20
50
ENDCHAR
STARTCHAR uni1E3D
ENCODING 7741
SWIDTH 289 0
DWIDTH 3 0
BBX 3 12 1 -3
BITMAP
60
20
40
40
40
40
40
80
C0
00
40
A0
ENDCHAR
STARTCHAR uni1E3E
ENCODING 7742
SWIDTH 865 0
DWIDTH 10 0
BBX 11 12 0 0
BITMAP
0300
0400
0000
30E0
30C0
3140
3B80
2A80
2C80
4C80
4180
E380
ENDCHAR
STARTCHAR uni1E3F
ENCODING 7743
SWIDTH 944 0
DWIDTH 10 0
BBX 9 9 1 0
BITMAP
0600
0800
0000
DB80
6E80
6C80
4900
8900
9980
ENDCHAR
STARTCHAR uni1E40
ENCODING 7744
SWIDTH 865 0
DWIDTH 10 0
BBX 11 11 0 0
BITMAP
0200
0000
30E0
30C0
3140
3B80
2A80
2C80
4C80
4180
E380
ENDCHAR
STARTCHAR uni1E41
ENCODING 7745
SWIDTH 944 0
DWIDTH 10 0
BBX 9 8 1 0
BITMAP
0800
0000
DB80
6E80
6C80
4900
8900
9980
ENDCHAR
STARTCHAR uni1E42
ENCODING 7746
SWIDTH 865 0
DWIDTH 10 0
BBX 11 11 0 -2
BITMAP
30E0
30C0
3140
3B80
2A80
2C80
4C80
4180
E380
0000
0400
ENDCHAR
STARTCHAR uni1E43
ENCODING 7747
SWIDTH 944 0
DWIDTH 10 0
BBX 9 8 1 -2
BITMAP
DB80
6E80
6C80
4900
8900
9980
0000
0800
ENDCHAR
STARTCHAR uni1E44
ENCODING 7748
SWIDTH 762 0
DWIDTH 8 0
BBX 10 11 0 0
BITMAP
0400
0000
21C0
3100
3100
2900
2900
2500
4700
4200
E200
ENDCHAR
STARTCHAR uni1E45
ENCODING 7749
SWIDTH 631 0
DWIDTH 7 0
BBX 6 8 1 0
BITMAP
10
00
DC
54
64
48
88
8C
ENDCHAR
STARTCHAR uni1E46
ENCODING 7750
SWIDTH 762 0
DWIDTH 8 0
BBX 10 11 0 -2
BITMAP
21C0
3100
3100
2900
2900
2500
4700
4200
E200
0000
0800
ENDCHAR
STARTCHAR uni1E47
ENCODING 7751
SWIDTH 631 0
DWIDTH 7 0
BBX 6 8 1 -2
BITMAP
DC
54
64
48
88
8C
00
10
ENDCHAR
STARTCHAR uni1E48
ENCODING 7752
SWIDTH 762 0
DWIDTH 8 0
BBX 10 11 0 -2
BITMAP
21C0
3100
3100
2900
2900
2500
4700
4200
E200
0000
1C00
ENDCHAR
STARTCHAR uni1E49
ENCODING 7753
SWIDTH 631 0
DWIDTH 7 0
BBX 6 8 1 -2
BITMAP
DC
54
64
48
88
8C
00
38
ENDCHAR
STARTCHAR uni1E4A
ENCODING 7754
SWIDTH 762 0
DWIDTH 8 0
BBX 10 12 0 -3
BITMAP
21C0
3100
3100
2900
2900
2500
4700
4200
E200
0000
0800
1400
ENDCHAR
STARTCHAR uni1E4B
ENCODING 7755
SWIDTH 631 0
DWIDTH 7 0
BBX 6 9 1 -3
BITMAP
DC
54
64
48
88
8C
00
10
28
ENDCHAR
STARTCHAR uni1E4C
ENCODING 7756
SWIDTH 783 0
DWIDTH 9 0
BBX 8 13 1 0
BITMAP
06
08
00
1E
1E
22
43
C1
83
82
82
C4
78
ENDCHAR
STARTCHAR uni1E4D
ENCODING 7757
SWIDTH 560 0
DWIDTH 6 0
BBX 6 10 1 0
BITMAP
0C
10
00
3C
38
48
C8
88
98
F0
ENDCHAR
STARTCHAR uni1E4E
ENCODING 7758
SWIDTH 783 0
DWIDTH 9 0
BBX 8 12 1 0
BITMAP
14
00
1E
1E
22
43
C1
83
82
82
C4
78
ENDCHAR
STARTCHAR uni1E4F
ENCODING 7759
SWIDTH 560 0
DWIDTH 6 0
BBX 6 9 1 0
BITMAP
28
00
3C
38
48
C8
88
98
F0
ENDCHAR
STARTCHAR uni1E50
ENCODING 7760
SWIDTH 783 0
DWIDTH 9 0
BBX 8 14 1 0
BITMAP
10
08
00
1C
00
1E
22
43
C1
83
82
82
C4
78
ENDCHAR
STARTCHAR uni1E51
ENCODING 7761
SWIDTH 560 0
DWIDTH 6 0
BBX 5 11 1 0
BITMAP
20
10
00
38
00
38
48
C8
88
98
F0
ENDCHAR
STARTCHAR uni1E52
ENCODING 7762
SWIDTH 783 0
DWIDTH 9 0
BBX 8 14 1 0
BITMAP
06
08
00
1C
00
1E
22
43
C1
83
82
82
C4
78
ENDCHAR
STARTCHAR uni1E53
ENCODING 7763
SWIDTH 560 0
DWIDTH 6 0
BBX 5 11 1 0
BITMAP
18
20
00
38
00
38
48
C8
88
98
F0
ENDCHAR
STARTCHAR uni1E54
ENCODING 7764
SWIDTH 579 0
DWIDTH 6 0
BBX 7 12 0 0
BITMAP
0C
10
00
3C
32
22
24
38
60
40
40
E0
ENDCHAR
STARTCHAR uni1E55
ENCODING 7765
SWIDTH 608 0
DWIDTH 7 0
BBX 6 11 1 -2
BITMAP
18
20
00
DC
74
64
48
48
F0
80
80
ENDCHAR
STARTCHAR uni1E56
ENCODING 7766
SWIDTH 579 0
DWIDTH 6 0
BBX 7 11 0 0
BITMAP
10
00
3C
32
22
24
38
60
40
40
E0
ENDCHAR
STARTCHAR uni1E57
ENCODING 7767
SWIDTH 608 0
DWIDTH 7 0
BBX 6 10 1 -2
BITMAP
10
00
DC
74
64
48
48
F0
80
80
ENDCHAR
STARTCHAR uni1E58
ENCODING 7768
SWIDTH 686 0
DWIDTH 8 0
BBX 7 11 0 0
BITMAP
10
00
7C
26
22
24
38
68
48
44
E6
ENDCHAR
STARTCHAR uni1E59
ENCODING 7769
SWIDTH 470 0
DWIDTH 5 0
BBX 5 8 1 0
BITMAP
20
00
D8
68
60
40
80
80
ENDCHAR
STARTCHAR uni1E5A
ENCODING 7770
SWIDTH 686 0
DWIDTH 8 0
BBX 7 11 0 -2
BITMAP
7C
26
22
24
38
68
48
44
E6
00
10
ENDCHAR
STARTCHAR uni1E5B
ENCODING 7771
SWIDTH 470 0
DWIDTH 5 0
BBX 5 8 1 -2
BITMAP
D8
68
60
40
80
80
00
40
ENDCHAR
STARTCHAR uni1E5C
ENCODING 7772
SWIDTH 686 0
DWIDTH 8 0
BBX 7 13 0 -2
BITMAP
38
00
7C
26
22
24
38
68
48
44
E6
00
10
ENDCHAR
STARTCHAR uni1E5D
ENCODING 7773
SWIDTH 470 0
DWIDTH 5 0
BBX 5 10 1 -2
BITMAP
70
00
D8
68
60
40
80
80
00
40
ENDCHAR
STARTCHAR uni1E5E
ENCODING 7774
SWIDTH 686 0
DWIDTH 8 0
BBX 7 11 0 -2
BITMAP
7C
26
22
24
38
68
48
44
E6
00
38
ENDCHAR
STARTCHAR uni1E5F
ENCODING 7775
SWIDTH 470 0
DWIDTH 5 0
BBX 5 8 1 -2
BITMAP
D8
68
60
40
80
80
00
E0
ENDCHAR
STARTCHAR uni1E60
ENCODING 7776
SWIDTH 549 0
DWIDTH 6 0
BBX 6 11 1 0
BITMAP
10
00
3C
64
44
20
18
08
8C
88
F0
ENDCHAR
STARTCHAR uni1E61
ENCODING 7777
SWIDTH 440 0
DWIDTH 5 0
BBX 4 8 1 0
BITMAP
20
00
70
50
40
20
90
E0
ENDCHAR
STARTCHAR uni1E62
ENCODING 7778
SWIDTH 549 0
DWIDTH 6 0
BBX 6 11 1 -2
BITMAP
3C
64
44
20
18
08
8C
88
F0
00
20
ENDCHAR
STARTCHAR uni1E63
ENCODING 7779
SWIDTH 440 0
DWIDTH 5 0
BBX 4 8 1 -2
BITMAP
70
50
40
20
90
E0
00
40
ENDCHAR
STARTCHAR uni1E64
ENCODING 7780
SWIDTH 549 0
DWIDTH 6 0
BBX 6 14 1 0
BITMAP
10
00
0C
10
00
3C
64
44
20
18
08
8C
88
F0
ENDCHAR
STARTCHAR uni1E65
ENCODING 7781
SWIDTH 440 0
DWIDTH 5 0
BBX 5 11 1 0
BITMAP
10
00
18
20
00
70
50
40
20
90
E0
ENDCHAR
STARTCHAR uni1E66
ENCODING 7782
SWIDTH 549 0
DWIDTH 6 0
BBX 6 13 1 0
BITMAP
10
00
14
08
3C
64
44
20
18
08
8C
88
F0
ENDCHAR
STARTCHAR uni1E67
ENCODING 7783
SWIDTH 440 0
DWIDTH 5 0
BBX 5 10 1 0
BITMAP
20
00
28
10
70
50
40
20
90
E0
ENDCHAR
STARTCHAR uni1E68
ENCODING 7784
SWIDTH 549 0
DWIDTH 6 0
BBX 6 13 1 -2
BITMAP
10
00
3C
64
44
20
18
08
8C
88
F0
00
20
ENDCHAR
STARTCHAR uni1E69
ENCODING 7785
SWIDTH 440 0
DWIDTH 5 0
BBX 4 10 1 -2
BITMAP
20
00
70
50
40
20
90
E0
00
40
ENDCHAR
STARTCHAR uni1E6A
ENCODING 7786
SWIDTH 663 0
DWIDTH 7 0
BBX 7 11 2 0
BITMAP
10
00
FE
92
10
30
20
20
20
20
F0
ENDCHAR
STARTCHAR uni1E6B
ENCODING 7787
SWIDTH 355 0
DWIDTH 4 0
BBX 4 11 1 0
BITMAP
40
00
20
40
40
F0
40
40
80
80
E0
ENDCHAR
STARTCHAR uni1E6C
ENCODING 7788
SWIDTH 663 0
DWIDTH 7 0
BBX 7 11 2 -2
BITMAP
FE
92
10
30
20
20
20
20
F0
00
20
ENDCHAR
STARTCHAR uni1E6D
ENCODING 7789
SWIDTH 355 0
DWIDTH 4 0
BBX 4 11 1 -2
BITMAP
20
40
40
F0
40
40
80
80
E0
00
40
ENDCHAR
STARTCHAR uni1E6E
ENCODING 7790
SWIDTH 663 0
DWIDTH 7 0
BBX 7 11 2 -2
BITMAP
FE
92
10
30
20
20
20
20
F0
00
70
ENDCHAR
STARTCHAR uni1E6F
ENCODING 7791
SWIDTH 355 0
DWIDTH 4 0
BBX 4 11 1 -2
BITMAP
20
40
40
F0
40
40
80
80
E0
00
E0
ENDCHAR
STARTCHAR uni1E70
ENCODING 7792
SWIDTH 663 0
DWIDTH 7 0
BBX 7 12 2 -3
BITMAP
FE
92
10
30
20
20
20
20
F0
00
20
50
ENDCHAR
STARTCHAR uni1E71
ENCODING 7793
SWIDTH 355 0
DWIDTH 4 0
BBX 4 12 1 -3
BITMAP
20
40
40
F0
40
40
80
80
E0
00
40
A0
ENDCHAR
STARTCHAR uni1E72
ENCODING 7794
SWIDTH 727 0
DWIDTH 8 0
BBX 8 11 2 -2
BITMAP
E7
42
42
44
84
84
84
C8
78
00
28
ENDCHAR
STARTCHAR uni1E73
ENCODING 7795
SWIDTH 630 0
DWIDTH 7 0
BBX 6 8 1 -2
BITMAP
CC
44
4C
98
98
EC
00
50
ENDCHAR
STARTCHAR uni1E74
ENCODING 7796
SWIDTH 727 0
DWIDTH 8 0
BBX 8 11 2 -2
BITMAP
E7
42
42
44
84
84
84
C8
78
00
78
ENDCHAR
STARTCHAR uni1E75
ENCODING 7797
SWIDTH 630 0
DWIDTH 7 0
BBX 6 8 1 -2
BITMAP
CC
44
4C
98
98
EC
00
78
ENDCHAR
STARTCHAR uni1E76
ENCODING 7798
SWIDTH 727 0
DWIDTH 8 0
BBX 8 12 2 -3
BITMAP
E7
42
42
44
84
84
84
C8
78
00
10
28
ENDCHAR
STARTCHAR uni1E77
ENCODING 7799
SWIDTH 630 0
DWIDTH 7 0
BBX 6 9 1 -3
BITMAP
CC
44
4C
98
98
EC
00
20
50
ENDCHAR
STARTCHAR uni1E78
ENCODING 7800
SWIDTH 727 0
DWIDTH 8 0
BBX 8 14 2 0
BITMAP
0C
10
00
3C
00
E7
42
42
44
84
84
84
C8
78
ENDCHAR
STARTCHAR uni1E79
ENCODING 7801
SWIDTH 630 0
DWIDTH 7 0
BBX 6 11 1 0
BITMAP
18
20
00
78
00
CC
44
4C
98
98
EC
ENDCHAR
STARTCHAR uni1E7A
ENCODING 7802
SWIDTH 727 0
DWIDTH 8 0
BBX 8 13 2 0
BITMAP
14
00
1C
00
E7
42
42
44
84
84
84
C8
78
ENDCHAR
STARTCHAR uni1E7B
ENCODING 7803
SWIDTH 630 0
DWIDTH 7 0
BBX 6 10 1 0
BITMAP
28
00
38
00
CC
44
4C
98
98
EC
ENDCHAR
STARTCHAR uni1E7C
ENCODING 7804
SWIDTH 656 0
DWIDTH 7 0
BBX 8 11 1 0
BITMAP
3C
00
E3
42
42
44
4C
68
30
30
20
ENDCHAR
STARTCHAR uni1E7D
ENCODING 7805
SWIDTH 558 0
DWIDTH 6 0
BBX 6 8 1 0
BITMAP
78
00
C4
44
2C
28
30
20
ENDCHAR
STARTCHAR uni1E7E
ENCODING 7806
SWIDTH 656 0
DWIDTH 7 0
BBX 8 11 1 -2
BITMAP
E3
42
42
44
4C
68
30
30
20
00
10
ENDCHAR
STARTCHAR uni1E7F
ENCODING 7807
SWIDTH 558 0
DWIDTH 6 0
BBX 6 8 1 -2
BITMAP
C4
44
2C
28
30
20
00
20
ENDCHAR
STARTCHAR Wgrave
ENCODING 7808
SWIDTH 878 0
DWIDTH 10 0
BBX 10 12 1 0
BITMAP
0800
0400
0000
E4C0
4C80
4C80
5500
5500
6600
6600
6400
4400
ENDCHAR
STARTCHAR wgrave
ENCODING 7809
SWIDTH 805 0
DWIDTH 9 0
BBX 9 9 1 0
BITMAP
1000
0800
0000
C980
4980
5D00
3600
2600
2400
ENDCHAR
STARTCHAR Wacute
ENCODING 7810
SWIDTH 878 0
DWIDTH 10 0
BBX 10 12 1 0
BITMAP
0600
0800
0000
E4C0
4C80
4C80
5500
5500
6600
6600
6400
4400
ENDCHAR
STARTCHAR wacute
ENCODING 7811
SWIDTH 805 0
DWIDTH 9 0
BBX 9 9 1 0
BITMAP
0600
0800
0000
C980
4980
5D00
3600
2600
2400
ENDCHAR
STARTCHAR Wdieresis
ENCODING 7812
SWIDTH 878 0
DWIDTH 10 0
BBX 10 11 1 0
BITMAP
1400
0000
E4C0
4C80
4C80
5500
5500
6600
6600
6400
4400
ENDCHAR
STARTCHAR wdieresis
ENCODING 7813
SWIDTH 805 0
DWIDTH 9 0
BBX 9 8 1 0
BITMAP
1400
0000
C980
4980
5D00
3600
2600
2400
ENDCHAR
STARTCHAR uni1E86
ENCODING 7814
SWIDTH 878 0
DWIDTH 10 0
BBX 10 11 1 0
BITMAP
0800
0000
E4C0
4C80
4C80
5500
5500
6600
6600
6400
4400
ENDCHAR
STARTCHAR uni1E87
ENCODING 7815
SWIDTH 805 0
DWIDTH 9 0
BBX 9 8 1 0
BITMAP
0800
0000
C980
4980
5D00
3600
2600
2400
ENDCHAR
STARTCHAR uni1E88
ENCODING 7816
SWIDTH 878 0
DWIDTH 10 0
BBX 10 11 1 -2
BITMAP
E4C0
4C80
4C80
5500
5500
6600
6600
6400
4400
0000
0800
ENDCHAR
STARTCHAR uni1E89
ENCODING 7817
SWIDTH 805 0
DWIDTH 9 0
BBX 9 8 1 -2
BITMAP
C980
4980
5D00
3600
2600
2400
0000
0800
ENDCHAR
STARTCHAR uni1E8A
ENCODING 7818
SWIDTH 624 0
DWIDTH 7 0
BBX 9 11 0 0
BITMAP
0400
0000
3980
1100
1200
0C00
0800
1400
2400
4200
C700
ENDCHAR
STARTCHAR uni1E8B
ENCODING 7819
SWIDTH 510 0
DWIDTH 6 0
BBX 6 8 0 0
BITMAP
20
00
C4
28
30
70
D8
8C
ENDCHAR
STARTCHAR uni1E8C
ENCODING 7820
SWIDTH 624 0
DWIDTH 7 0
BBX 9 11 0 0
BITMAP
0A00
0000
3980
1100
1200
0C00
0800
1400
2400
4200
C700
ENDCHAR
STARTCHAR uni1E8D
ENCODING 7821
SWIDTH 510 0
DWIDTH 6 0
BBX 6 8 0 0
BITMAP
50
00
C4
28
30
70
D8
8C
ENDCHAR
STARTCHAR uni1E8E
ENCODING 7822
SWIDTH 663 0
DWIDTH 7 0
BBX 7 11 2 0
BITMAP
10
00
E6
44
4C
38
30
20
20
20
70
ENDCHAR
STARTCHAR uni1E8F
ENCODING 7823
SWIDTH 558 0
DWIDTH 6 0
BBX 7 10 0 -2
BITMAP
10
00
66
22
24
28
18
20
20
C0
ENDCHAR
STARTCHAR uni1E90
ENCODING 7824
SWIDTH 633 0
DWIDTH 7 0
BBX 7 12 1 0
BITMAP
10
28
00
3E
24
4C
08
10
20
60
44
FC
ENDCHAR
STARTCHAR uni1E91
ENCODING 7825
SWIDTH 536 0
DWIDTH 6 0
BBX 6 9 0 0
BITMAP
10
28
00
7C
48
10
20
48
F8
ENDCHAR
STARTCHAR uni1E92
ENCODING 7826
SWIDTH 633 0
DWIDTH 7 0
BBX 7 11 1 -2
BITMAP
3E
24
4C
08
10
20
60
44
FC
00
10
ENDCHAR
STARTCHAR uni1E93
ENCODING 7827
SWIDTH 536 0
DWIDTH 6 0
BBX 6 8 0 -2
BITMAP
7C
48
10
20
48
F8
00
20
ENDCHAR
STARTCHAR uni1E94
ENCODING 7828
SWIDTH 633 0
DWIDTH 7 0
BBX 7 11 1 -2
BITMAP
3E
24
4C
08
10
20
60
44
FC
00
38
ENDCHAR
STARTCHAR uni1E95
ENCODING 7829
SWIDTH 536 0
DWIDTH 6 0
BBX 6 8 0 -2
BITMAP
7C
48
10
20
48
F8
00
70
ENDCHAR
STARTCHAR uni1E96
ENCODING 7830
SWIDTH 631 0
DWIDTH 7 0
BBX 6 11 1 -2
BITMAP
60
20
40
5C
74
44
48
88
8C
00
38
ENDCHAR
STARTCHAR uni1E97
ENCODING 7831
SWIDTH 355 0
DWIDTH 4 0
BBX 4 11 1 0
BITMAP
A0
00
20
40
40
F0
40
40
80
80
E0
ENDCHAR
STARTCHAR uni1E98
ENCODING 7832
SWIDTH 805 0
DWIDTH 9 0
BBX 9 9 1 0
BITMAP
0C00
0C00
0000
C980
4980
5D00
3600
2600
2400
ENDCHAR
STARTCHAR uni1E99
ENCODING 7833
SWIDTH 558 0
DWIDTH 6 0
BBX 7 11 0 -2
BITMAP
18
18
00
66
22
24
28
18
20
20
C0
ENDCHAR
STARTCHAR uni1EA0
ENCODING 7840
SWIDTH 747 0
DWIDTH 8 0
BBX 8 11 0 -2
BITMAP
04
0C
0C
14
32
3E
42
42
C7
00
08
ENDCHAR
STARTCHAR uni1EA1
ENCODING 7841
SWIDTH 608 0
DWIDTH 7 0
BBX 6 8 1 -2
BITMAP
3C
44
48
88
B8
EC
00
20
ENDCHAR
STARTCHAR uni1EA4
ENCODING 7844
SWIDTH 747 0
DWIDTH 8 0
BBX 8 14 0 0
BITMAP
06
08
00
04
0A
04
0C
0C
14
32
3E
42
42
C7
ENDCHAR
STARTCHAR uni1EA5
ENCODING 7845
SWIDTH 608 0
DWIDTH 7 0
BBX 6 11 1 0
BITMAP
0C
10
00
08
14
3C
44
48
88
B8
EC
ENDCHAR
STARTCHAR uni1EA6
ENCODING 7846
SWIDTH 747 0
DWIDTH 8 0
BBX 8 14 0 0
BITMAP
08
04
00
04
0A
04
0C
0C
14
32
3E
42
42
C7
ENDCHAR
STARTCHAR uni1EA7
ENCODING 7847
SWIDTH 608 0
DWIDTH 7 0
BBX 6 11 1 0
BITMAP
20
10
00
08
14
3C
44
48
88
B8
EC
ENDCHAR
STARTCHAR uni1EAA
ENCODING 7850
SWIDTH 747 0
DWIDTH 8 0
BBX 8 13 0 0
BITMAP
1E
00
04
0A
04
0C
0C
14
32
3E
42
42
C7
ENDCHAR
STARTCHAR uni1EAB
ENCODING 7851
SWIDTH 608 0
DWIDTH 7 0
BBX 6 10 1 0
BITMAP
3C
00
08
14
3C
44
48
88
B8
EC
ENDCHAR
STARTCHAR uni1EAC
ENCODING 7852
SWIDTH 747 0
DWIDTH 8 0
BBX 8 14 0 -2
BITMAP
08
14
00
04
0C
0C
14
32
3E
42
42
C7
00
08
ENDCHAR
STARTCHAR uni1EAD
ENCODING 7853
SWIDTH 608 0
DWIDTH 7 0
BBX 6 11 1 -2
BITMAP
10
28
00
3C
44
48
88
B8
EC
00
20
ENDCHAR
STARTCHAR uni1EAE
ENCODING 7854
SWIDTH 747 0
DWIDTH 8 0
BBX 8 15 0 0
BITMAP
06
08
00
12
1C
00
04
0C
0C
14
32
3E
42
42
C7
ENDCHAR
STARTCHAR uni1EAF
ENCODING 7855
SWIDTH 608 0
DWIDTH 7 0
BBX 6 12 1 0
BITMAP
0C
10
00
24
38
00
3C
44
48
88
B8
EC
ENDCHAR
STARTCHAR uni1EB0
ENCODING 7856
SWIDTH 747 0
DWIDTH 8 0
BBX 8 15 0 0
BITMAP
10
08
00
12
1C
00
04
0C
0C
14
32
3E
42
42
C7
ENDCHAR
STARTCHAR uni1EB1
ENCODING 7857
SWIDTH 608 0
DWIDTH 7 0
BBX 6 12 1 0
BITMAP
20
10
00
24
38
00
3C
44
48
88
B8
EC
ENDCHAR
STARTCHAR uni1EB4
ENCODING 7860
SWIDTH 747 0
DWIDTH 8 0
BBX 8 14 0 0
BITMAP
1E
00
12
1C
00
04
0C
0C
14
32
3E
42
42
C7
ENDCHAR
STARTCHAR uni1EB5
ENCODING 7861
SWIDTH 608 0
DWIDTH 7 0
BBX 6 11 1 0
BITMAP
78
00
24
38
00
3C
44
48
88
B8
EC
ENDCHAR
STARTCHAR uni1EB6
ENCODING 7862
SWIDTH 747 0
DWIDTH 8 0
BBX 8 14 0 -2
BITMAP
12
1C
00
04
0C
0C
14
32
3E
42
42
C7
00
08
ENDCHAR
STARTCHAR uni1EB7
ENCODING 7863
SWIDTH 608 0
DWIDTH 7 0
BBX 6 11 1 -2
BITMAP
24
38
00
3C
44
48
88
B8
EC
00
20
ENDCHAR
STARTCHAR uni1EB8
ENCODING 7864
SWIDTH 569 0
DWIDTH 6 0
BBX 7 11 0 -2
BITMAP
3E
32
20
24
3C
28
60
44
FC
00
10
ENDCHAR
STARTCHAR uni1EB9
ENCODING 7865
SWIDTH 518 0
DWIDTH 6 0
BBX 5 8 1 -2
BITMAP
38
48
90
E0
88
70
00
20
ENDCHAR
STARTCHAR uni1EBC
ENCODING 7868
SWIDTH 569 0
DWIDTH 6 0
BBX 7 11 0 0
BITMAP
3C
00
3E
32
20
24
3C
28
60
44
FC
ENDCHAR
STARTCHAR uni1EBD
ENCODING 7869
SWIDTH 518 0
DWIDTH 6 0
BBX 5 8 1 0
BITMAP
78
00
38
48
90
E0
88
70
ENDCHAR
STARTCHAR uni1EBE
ENCODING 7870
SWIDTH 569 0
DWIDTH 6 0
BBX 7 14 0 0
BITMAP
0C
10
00
08
14
3E
32
20
24
3C
28
60
44
FC
ENDCHAR
STARTCHAR uni1EBF
ENCODING 7871
SWIDTH 518 0
DWIDTH 6 0
BBX 5 11 1 0
BITMAP
18
20
00
10
28
38
48
90
E0
88
70
ENDCHAR
STARTCHAR uni1EC0
ENCODING 7872
SWIDTH 569 0
DWIDTH 6 0
BBX 7 14 0 0
BITMAP
10
08
00
08
14
3E
32
20
24
3C
28
60
44
FC
ENDCHAR
STARTCHAR uni1EC1
ENCODING 7873
SWIDTH 518 0
DWIDTH 6 0
BBX 5 11 1 0
BITMAP
20
10
00
10
28
38
48
90
E0
88
70
ENDCHAR
STARTCHAR uni1EC4
ENCODING 7876
SWIDTH 569 0
DWIDTH 6 0
BBX 7 13 0 0
BITMAP
3C
00
08
14
3E
32
20
24
3C
28
60
44
FC
ENDCHAR
STARTCHAR uni1EC5
ENCODING 7877
SWIDTH 518 0
DWIDTH 6 0
BBX 5 10 1 0
BITMAP
78
00
10
28
38
48
90
E0
88
70
ENDCHAR
STARTCHAR uni1EC6
ENCODING 7878
SWIDTH 569 0
DWIDTH 6 0
BBX 7 14 0 -2
BITMAP
10
28
00
3E
32
20
24
3C
28
60
44
FC
00
10
ENDCHAR
STARTCHAR uni1EC7
ENCODING 7879
SWIDTH 518 0
DWIDTH 6 0
BBX 5 11 1 -2
BITMAP
20
50
00
38
48
90
E0
88
70
00
20
ENDCHAR
STARTCHAR uni1ECA
ENCODING 7882
SWIDTH 325 0
DWIDTH 4 0
BBX 5 11 0 -2
BITMAP
38
10
30
20
20
20
60
40
E0
00
40
ENDCHAR
STARTCHAR uni1ECB
ENCODING 7883
SWIDTH 289 0
DWIDTH 3 0
BBX 3 11 1 -2
BITMAP
20
00
00
E0
40
40
40
80
C0
00
40
ENDCHAR
STARTCHAR uni1ECC
ENCODING 7884
SWIDTH 783 0
DWIDTH 9 0
BBX 8 11 1 -2
BITMAP
1E
22
43
C1
83
82
82
C4
78
00
10
ENDCHAR
STARTCHAR uni1ECD
ENCODING 7885
SWIDTH 560 0
DWIDTH 6 0
BBX 5 8 1 -2
BITMAP
38
48
C8
88
98
F0
00
20
ENDCHAR
STARTCHAR uni1ED0
ENCODING 7888
SWIDTH 783 0
DWIDTH 9 0
BBX 8 14 1 0
BITMAP
06
08
00
08
14
1E
22
43
C1
83
82
82
C4
78
ENDCHAR
STARTCHAR uni1ED1
ENCODING 7889
SWIDTH 560 0
DWIDTH 6 0
BBX 5 11 1 0
BITMAP
18
20
00
10
28
38
48
C8
88
98
F0
ENDCHAR
STARTCHAR uni1ED2
ENCODING 7890
SWIDTH 783 0
DWIDTH 9 0
BBX 8 14 1 0
BITMAP
10
08
00
08
14
1E
22
43
C1
83
82
82
C4
78
ENDCHAR
STARTCHAR uni1ED3
ENCODING 7891
SWIDTH 560 0
DWIDTH 6 0
BBX 5 11 1 0
BITMAP
20
10
00
10
28
38
48
C8
88
98
F0
ENDCHAR
STARTCHAR uni1ED6
ENCODING 7894
SWIDTH 783 0
DWIDTH 9 0
BBX 8 13 1 0
BITMAP
1E
00
08
14
1E
22
43
C1
83
82
82
C4
78
ENDCHAR
STARTCHAR uni1ED7
ENCODING 7895
SWIDTH 560 0
DWIDTH 6 0
BBX 5 10 1 0
BITMAP
78
00
10
28
38
48
C8
88
98
F0
ENDCHAR
STARTCHAR uni1ED8
ENCODING 7896
SWIDTH 783 0
DWIDTH 9 0
BBX 8 14 1 -2
BITMAP
08
14
00
1E
22
43
C1
83
82
82
C4
78
00
10
ENDCHAR
STARTCHAR uni1ED9
ENCODING 7897
SWIDTH 560 0
DWIDTH 6 0
BBX 5 11 1 -2
BITMAP
20
50
00
38
48
C8
88
98
F0
00
20
ENDCHAR
STARTCHAR uni1EDA
ENCODING 7898
SWIDTH 783 0
DWIDTH 9 0
BBX 10 12 1 0
BITMAP
0300
0400
0000
1EC0
2240
4340
C180
8300
8200
8200
C400
7800
ENDCHAR
STARTCHAR uni1EDB
ENCODING 7899
SWIDTH 560 0
DWIDTH 6 0
BBX 7 9 1 0
BITMAP
0C
10
00
3E
4A
CA
8C
98
F0
ENDCHAR
STARTCHAR uni1EDC
ENCODING 7900
SWIDTH 783 0
DWIDTH 9 0
BBX 10 12 1 0
BITMAP
0400
0200
0000
1EC0
2240
4340
C180
8300
8200
8200
C400
7800
ENDCHAR
STARTCHAR uni1EDD
ENCODING 7901
SWIDTH 560 0
DWIDTH 6 0
BBX 7 9 1 0
BITMAP
10
08
00
3E
4A
CA
8C
98
F0
ENDCHAR
STARTCHAR uni1EE0
ENCODING 7904
SWIDTH 783 0
DWIDTH 9 0
BBX 10 11 1 0
BITMAP
0F00
0000
1EC0
2240
4340
C180
8300
8200
8200
C400
7800
ENDCHAR
STARTCHAR uni1EE1
ENCODING 7905
SWIDTH 560 0
DWIDTH 6 0
BBX 7 8 1 0
BITMAP
3C
00
3E
4A
CA
8C
98
F0
ENDCHAR
STARTCHAR uni1EE2
ENCODING 7906
SWIDTH 783 0
DWIDTH 9 0
BBX 10 11 1 -2
BITMAP
1EC0
2240
4340
C180
8300
8200
8200
C400
7800
0000
1000
ENDCHAR
STARTCHAR uni1EE3
ENCODING 7907
SWIDTH 560 0
DWIDTH 6 0
BBX 7 8 1 -2
BITMAP
3E
4A
CA
8C
98
F0
00
20
ENDCHAR
STARTCHAR uni1EE4
ENCODING 7908
SWIDTH 727 0
DWIDTH 8 0
BBX 8 11 2 -2
BITMAP
E7
42
42
44
84
84
84
C8
78
00
10
ENDCHAR
STARTCHAR uni1EE5
ENCODING 7909
SWIDTH 630 0
DWIDTH 7 0
BBX 6 8 1 -2
BITMAP
CC
44
4C
98
98
EC
00
20
ENDCHAR
STARTCHAR uni1EE8
ENCODING 7912
SWIDTH 727 0
DWIDTH 8 0
BBX 10 12 2 0
BITMAP
0300
0400
0000
E7C0
4240
4240
4480
8400
8400
8400
C800
7800
ENDCHAR
STARTCHAR uni1EE9
ENCODING 7913
SWIDTH 630 0
DWIDTH 7 0
BBX 8 9 1 0
BITMAP
06
08
00
CF
45
4D
9A
98
EC
ENDCHAR
STARTCHAR uni1EEA
ENCODING 7914
SWIDTH 727 0
DWIDTH 8 0
BBX 10 12 2 0
BITMAP
0800
0400
0000
E7C0
4240
4240
4480
8400
8400
8400
C800
7800
ENDCHAR
STARTCHAR uni1EEB
ENCODING 7915
SWIDTH 630 0
DWIDTH 7 0
BBX 8 9 1 0
BITMAP
10
08
00
CF
45
4D
9A
98
EC
ENDCHAR
STARTCHAR uni1EEE
ENCODING 7918
SWIDTH 727 0
DWIDTH 8 0
BBX 10 11 2 0
BITMAP
1E00
0000
E7C0
4240
4240
4480
8400
8400
8400
C800
7800
ENDCHAR
STARTCHAR uni1EEF
ENCODING 7919
SWIDTH 630 0
DWIDTH 7 0
BBX 8 8 1 0
BITMAP
3C
00
CF
45
4D
9A
98
EC
ENDCHAR
STARTCHAR uni1EF0
ENCODING 7920
SWIDTH 727 0
DWIDTH 8 0
BBX 10 11 2 -2
BITMAP
E7C0
4240
4240
4480
8400
8400
8400
C800
7800
0000
1000
ENDCHAR
STARTCHAR uni1EF1
ENCODING 7921
SWIDTH 630 0
DWIDTH 7 0
BBX 8 8 1 -2
BITMAP
CF
45
4D
9A
98
EC
00
10
ENDCHAR
STARTCHAR Ygrave
ENCODING 7922
SWIDTH 663 0
DWIDTH 7 0
BBX 7 12 2 0
BITMAP
20
10
00
E6
44
4C
38
30
20
20
20
70
ENDCHAR
STARTCHAR ygrave
ENCODING 7923
SWIDTH 558 0
DWIDTH 6 0
BBX 7 11 0 -2
BITMAP
10
08
00
66
22
24
28
18
20
20
C0
ENDCHAR
STARTCHAR uni1EF4
ENCODING 7924
SWIDTH 663 0
DWIDTH 7 0
BBX 7 11 2 -2
BITMAP
E6
44
4C
38
30
20
20
20
70
00
20
ENDCHAR
STARTCHAR uni1EF5
ENCODING 7925
SWIDTH 558 0
DWIDTH 6 0
BBX 7 10 0 -4
BITMAP
66
22
24
28
18
20
20
C0
00
20
ENDCHAR
STARTCHAR uni1EF8
ENCODING 7928
SWIDTH 663 0
DWIDTH 7 0
BBX 7 11 2 0
BITMAP
3C
00
E6
44
4C
38
30
20
20
20
70
ENDCHAR
STARTCHAR uni1EF9
ENCODING 7929
SWIDTH 558 0
DWIDTH 6 0
BBX 7 10 0 -2
BITMAP
3C
00
66
22
24
28
18
20
20
C0
ENDCHAR
STARTCHAR uni2000
ENCODING 8192
SWIDTH 500 0
DWIDTH 6 0
BBX 1 1 0 0
BITMAP
00
ENDCHAR
STARTCHAR uni2001
ENCODING 8193
SWIDTH 1000 0
DWIDTH 11 0
BBX 1 1 0 0
BITMAP
00
ENDCHAR
STARTCHAR uni2002
ENCODING 8194
SWIDTH 500 0
DWIDTH 6 0
BBX 1 1 0 0
BITMAP
00
ENDCHAR
STARTCHAR uni2003
ENCODING 8195
SWIDTH 1000 0
DWIDTH 11 0
BBX 1 1 0 0
BITMAP
00
ENDCHAR
STARTCHAR uni2004
ENCODING 8196
SWIDTH 333 0
DWIDTH 4 0
BBX 1 1 0 0
BITMAP
00
ENDCHAR
STARTCHAR uni2005
ENCODING 8197
SWIDTH 250 0
DWIDTH 3 0
BBX 1 1 0 0
BITMAP
00
ENDCHAR
STARTCHAR uni2006
ENCODING 8198
SWIDTH 167 0
DWIDTH 2 0
BBX 1 1 0 0
BITMAP
00
ENDCHAR
STARTCHAR uni2007
ENCODING 8199
SWIDTH 608 0
DWIDTH 7 0
BBX 1 1 0 0
BITMAP
00
ENDCHAR
STARTCHAR uni2008
ENCODING 8200
SWIDTH 265 0
DWIDTH 3 0
BBX 1 1 0 0
BITMAP
00
ENDCHAR
STARTCHAR uni2009
ENCODING 8201
SWIDTH 200 0
DWIDTH 2 0
BBX 1 1 0 0
BITMAP
00
ENDCHAR
STARTCHAR uni200A
ENCODING 8202
SWIDTH 100 0
DWIDTH 1 0
BBX 1 1 0 0
BITMAP
00
ENDCHAR
STARTCHAR uni200B
ENCODING 8203
SWIDTH 0 0
DWIDTH 0 0
BBX 1 1 0 0
BITMAP
00
ENDCHAR
STARTCHAR uni2010
ENCODING 8208
SWIDTH 313 0
DWIDTH 3 0
BBX 3 1 1 3
BITMAP
E0
ENDCHAR
STARTCHAR uni2011
ENCODING 8209
SWIDTH 313 0
DWIDTH 3 0
BBX 3 1 1 3
BITMAP
E0
ENDCHAR
STARTCHAR figuredash
ENCODING 8210
SWIDTH 500 0
DWIDTH 5 0
BBX 5 1 1 3
BITMAP
F8
ENDCHAR
STARTCHAR endash
ENCODING 8211
SWIDTH 500 0
DWIDTH 5 0
BBX 5 1 1 3
BITMAP
F8
ENDCHAR
STARTCHAR emdash
ENCODING 8212
SWIDTH 1000 0
DWIDTH 11 0
BBX 10 1 1 3
BITMAP
FFC0
ENDCHAR
STARTCHAR afii00208
ENCODING 8213
SWIDTH 1000 0
DWIDTH 11 0
BBX 10 1 1 3
BITMAP
FFC0
ENDCHAR
STARTCHAR quoteleft
ENCODING 8216
SWIDTH 265 0
DWIDTH 3 0
BBX 2 4 2 5
BITMAP
40
80
80
C0
ENDCHAR
STARTCHAR quoteright
ENCODING 8217
SWIDTH 265 0
DWIDTH 3 0
BBX 2 4 2 5
BITMAP
C0
40
40
80
ENDCHAR
STARTCHAR quotesinglbase
ENCODING 8218
SWIDTH 265 0
DWIDTH 3 0
BBX 2 4 0 -2
BITMAP
40
C0
40
80
ENDCHAR
STARTCHAR quotereversed
ENCODING 8219
SWIDTH 265 0
DWIDTH 3 0
BBX 2 4 2 5
BITMAP
C0
80
80
40
ENDCHAR
STARTCHAR quotedblleft
ENCODING 8220
SWIDTH 457 0
DWIDTH 5 0
BBX 4 4 2 5
BITMAP
50
A0
A0
F0
ENDCHAR
STARTCHAR quotedblright
ENCODING 8221
SWIDTH 457 0
DWIDTH 5 0
BBX 4 4 2 5
BITMAP
F0
50
50
A0
ENDCHAR
STARTCHAR quotedblbase
ENCODING 8222
SWIDTH 457 0
DWIDTH 5 0
BBX 4 4 0 -2
BITMAP
50
F0
50
A0
ENDCHAR
STARTCHAR uni201F
ENCODING 8223
SWIDTH 457 0
DWIDTH 5 0
BBX 4 4 2 5
BITMAP
F0
A0
A0
50
ENDCHAR
STARTCHAR dagger
ENCODING 8224
SWIDTH 608 0
DWIDTH 7 0
BBX 5 11 2 -2
BITMAP
10
20
20
F8
20
20
40
40
40
40
40
ENDCHAR
STARTCHAR daggerdbl
ENCODING 8225
SWIDTH 608 0
DWIDTH 7 0
BBX 6 11 1 -2
BITMAP
10
10
10
7C
20
20
20
F8
20
20
40
ENDCHAR
STARTCHAR bullet
ENCODING 8226
SWIDTH 608 0
DWIDTH 7 0
BBX 3 3 2 2
BITMAP
E0
E0
E0
ENDCHAR
STARTCHAR ellipsis
ENCODING 8230
SWIDTH 1000 0
DWIDTH 11 0
BBX 9 1 1 0
BITMAP
8880
ENDCHAR
STARTCHAR perthousand
ENCODING 8240
SWIDTH 1065 0
DWIDTH 12 0
BBX 11 9 1 0
BITMAP
7300
5200
5400
6800
16E0
29A0
29A0
4AA0
86C0
ENDCHAR
STARTCHAR guilsinglleft
ENCODING 8249
SWIDTH 330 0
DWIDTH 4 0
BBX 3 6 1 0
BITMAP
20
40
80
80
40
40
ENDCHAR
STARTCHAR guilsinglright
ENCODING 8250
SWIDTH 330 0
DWIDTH 4 0
BBX 3 6 1 0
BITMAP
40
40
20
20
40
80
ENDCHAR
STARTCHAR fraction
ENCODING 8260
SWIDTH 36 0
DWIDTH 1 0
BBX 8 9 -2 0
BITMAP
01
02
04
08
10
10
20
40
80
ENDCHAR
STARTCHAR oneinferior
ENCODING 8321
SWIDTH 365 0
DWIDTH 4 0
BBX 3 5 -5 -3
BITMAP
60
20
40
40
E0
ENDCHAR
STARTCHAR twoinferior
ENCODING 8322
SWIDTH 365 0
DWIDTH 4 0
BBX 4 5 -5 -3
BITMAP
70
50
60
80
E0
ENDCHAR
STARTCHAR threeinferior
ENCODING 8323
SWIDTH 365 0
DWIDTH 4 0
BBX 3 5 -5 -3
BITMAP
60
60
60
A0
E0
ENDCHAR
STARTCHAR uni20A5
ENCODING 8357
SWIDTH 944 0
DWIDTH 10 0
BBX 9 11 1 -2
BITMAP
0100
0200
0200
DF80
6E80
6C80
5900
9900
B980
2000
4000
ENDCHAR
STARTCHAR uni20A6
ENCODING 8358
SWIDTH 762 0
DWIDTH 8 0
BBX 10 9 0 0
BITMAP
21C0
3100
3100
3F80
2900
3F80
4700
4200
E200
ENDCHAR
STARTCHAR uni20A9
ENCODING 8361
SWIDTH 878 0
DWIDTH 10 0
BBX 10 9 1 0
BITMAP
E4C0
4C80
4C80
7F80
5500
7F80
6600
6400
4400
ENDCHAR
STARTCHAR Euro
ENCODING 8364
SWIDTH 714 0
DWIDTH 8 0
BBX 9 9 -1 0
BITMAP
0780
0880
1000
FE00
2000
FE00
2000
3100
1E00
ENDCHAR
STARTCHAR uni20AD
ENCODING 8365
SWIDTH 698 0
DWIDTH 8 0
BBX 8 9 0 0
BITMAP
7B
32
24
38
FF
78
48
44
EE
ENDCHAR
STARTCHAR uni2103
ENCODING 8451
SWIDTH 977 0
DWIDTH 11 0
BBX 9 9 2 0
BITMAP
C780
C880
D000
3000
2000
2000
2000
3100
1E00
ENDCHAR
STARTCHAR uni2109
ENCODING 8457
SWIDTH 814 0
DWIDTH 9 0
BBX 8 9 2 0
BITMAP
DF
D9
D0
12
1E
14
20
20
70
ENDCHAR
STARTCHAR trademark
ENCODING 8482
SWIDTH 904 0
DWIDTH 10 0
BBX 10 5 1 4
BITMAP
FEC0
4680
4B80
4A80
C880
ENDCHAR
STARTCHAR uni212A
ENCODING 8490
SWIDTH 698 0
DWIDTH 8 0
BBX 8 9 0 0
BITMAP
7B
32
24
38
30
78
48
44
EE
ENDCHAR
STARTCHAR uni212B
ENCODING 8491
SWIDTH 747 0
DWIDTH 8 0
BBX 8 11 0 0
BITMAP
06
06
04
0C
0C
14
32
3E
42
42
C7
ENDCHAR
STARTCHAR uni2132
ENCODING 8498
SWIDTH 551 0
DWIDTH 6 0
BBX 7 9 0 0
BITMAP
0E
04
04
28
78
48
08
98
F8
ENDCHAR
STARTCHAR minus
ENCODING 8722
SWIDTH 608 0
DWIDTH 7 0
BBX 6 1 1 3
BITMAP
FC
ENDCHAR
STARTCHAR fraction
ENCODING 8725
SWIDTH 36 0
DWIDTH 1 0
BBX 8 9 -2 0
BITMAP
01
02
04
08
10
10
20
40
80
ENDCHAR
STARTCHAR periodcentered
ENCODING 8729
SWIDTH 608 0
DWIDTH 7 0
BBX 1 1 3 3
BITMAP
80
ENDCHAR
STARTCHAR uni2236
ENCODING 8758
SWIDTH 265 0
DWIDTH 3 0
BBX 2 6 1 0
BITMAP
40
00
00
00
00
80
ENDCHAR
STARTCHAR uni2259
ENCODING 8793
SWIDTH 608 0
DWIDTH 7 0
BBX 7 6 0 2
BITMAP
10
28
00
FE
00
FE
ENDCHAR
STARTCHAR uni225A
ENCODING 8794
SWIDTH 608 0
DWIDTH 7 0
BBX 7 6 0 2
BITMAP
28
10
00
FE
00
FE
ENDCHAR
STARTCHAR notequal
ENCODING 8800
SWIDTH 608 0
DWIDTH 7 0
BBX 7 11 0 -2
BITMAP
02
04
04
08
FE
10
FE
20
40
40
80
ENDCHAR
STARTCHAR equivalence
ENCODING 8801
SWIDTH 608 0
DWIDTH 7 0
BBX 7 5 0 1
BITMAP
FE
00
FE
00
FE
ENDCHAR
STARTCHAR uni2262
ENCODING 8802
SWIDTH 608 0
DWIDTH 7 0
BBX 7 11 0 -2
BITMAP
02
04
04
FE
10
FE
20
FE
40
40
80
ENDCHAR
STARTCHAR lessequal
ENCODING 8804
SWIDTH 608 0
DWIDTH 7 0
BBX 7 10 1 -2
BITMAP
02
0C
10
E0
40
30
08
04
00
FE
ENDCHAR
STARTCHAR greaterequal
ENCODING 8805
SWIDTH 608 0
DWIDTH 7 0
BBX 7 10 0 -2
BITMAP
40
30
08
04
06
18
60
80
00
FE
ENDCHAR
STARTCHAR uni226E
ENCODING 8814
SWIDTH 608 0
DWIDTH 7 0
BBX 7 11 1 -1
BITMAP
02
04
06
0C
10
F0
60
30
48
44
80
ENDCHAR
STARTCHAR uni226F
ENCODING 8815
SWIDTH 608 0
DWIDTH 7 0
BBX 7 11 0 -1
BITMAP
02
04
44
38
18
14
26
38
60
C0
80
ENDCHAR
STARTCHAR uni2270
ENCODING 8816
SWIDTH 608 0
DWIDTH 7 0
BBX 7 11 1 -2
BITMAP
02
06
0C
18
F0
50
30
28
44
40
FE
ENDCHAR
STARTCHAR uni2271
ENCODING 8817
SWIDTH 608 0
DWIDTH 7 0
BBX 7 11 0 -2
BITMAP
02
44
34
08
14
16
38
60
C0
40
FE
ENDCHAR
STARTCHAR fi
ENCODING -1
SWIDTH 633 0
DWIDTH 7 0
BBX 7 11 1 -2
BITMAP
1A
28
20
7E
64
44
44
44
4C
80
80
ENDCHAR
STARTCHAR fl
ENCODING -1
SWIDTH 645 0
DWIDTH 7 0
BBX 7 11 1 -2
BITMAP
1E
22
24
74
44
44
44
4C
4C
80
80
ENDCHAR
ENDFONT
